<?xml version="1.0" encoding="utf-8"?>
<!-- Generator: Adobe Illustrator 18.0.0, SVG Export Plug-In . SVG Version: 6.00 Build 0)  -->
<!DOCTYPE svg PUBLIC "-//W3C//DTD SVG 1.1//EN" "http://www.w3.org/Graphics/SVG/1.1/DTD/svg11.dtd">
<svg version="1.1" xmlns="http://www.w3.org/2000/svg" xmlns:xlink="http://www.w3.org/1999/xlink" x="0px" y="0px"
	 viewBox="0 0 1000 2000" style="enable-background:new 0 0 1000 2000;" xml:space="preserve">
<g id="图层_1">
	<g>
		<g>
			<path style="fill:#8A959B;" d="M999.5,732.2c-14.3-21.1-28.6-35.1-41.7-44.3l2.9-165.5c12.5-122.6-8.3-207.8-23.6-251.2
				C904.5,51.5,804.6,33,688.8,11.5c-5.5-1-11.1-2.1-16.6-3.1L672,8.2L669.9,8c-11.4-1.3-132.2-6.4-162.9-7.7L500.1,0c0,0,0,0,0,0
				s0,0-0.1,0l-6.9,0.3C462.3,1.6,341.6,6.7,330.1,8L328,8.2l-0.2,0.2c-5.6,1.1-11.1,2.1-16.6,3.1C195.5,33,95.5,51.5,62.9,271.2
				c-15.4,43.3-36.2,128.4-23.7,250.7l2.9,166.1c-13.1,9.2-27.3,23.1-41.7,44.3c0,0-3.2,40.7,7.2,41.3L43,751.8l16.1,975.6l0.1,0.9
				c1.2,7.9,29.6,158.5,94.1,194.4c63.1,35.1,223.3,75.7,339.8,77.3v0.1h6.6c0.1,0,0.2,0,0.3,0s0.2,0,0.3,0h6.6v-0.1
				c116.5-1.6,276.7-42.2,339.8-77.3c64.5-35.8,92.9-186.4,94.1-194.4l0.1-0.5l16.1-976l35.4,21.7
				C1002.8,772.8,999.5,732.2,999.5,732.2z M916.6,231.7L691,25.6C796.1,45.1,880.5,63.2,916.6,231.7z M333.6,21.2
				c16.9-1.3,106.5-5.2,159.4-7.4h13.9c53,2.2,142.5,6.1,159.4,7.4l181,165.4c6.7,37.6,43.3,234.8,9.1,425.2
				C749.1,497,543.6,501.8,506.9,501.6l-13.9,0c-35.4,0.2-242.1-4.6-349.5,110.2c-34.2-190.4,2.5-387.6,9.1-425.2L333.6,21.2z
				 M854.4,622.6c-0.5,2.8-1,5.6-1.6,8.4l-80.1,283.1c-26.5-6.9-159-42.4-265.7-44.4h-13.9c-106.7,2-239.2,37.5-265.7,44.4l-80-283
				c-0.6-2.8-1.1-5.7-1.6-8.5c103.9-117.3,313.7-111.8,347.4-112l13.9,0C541.6,511,750.5,505.3,854.4,622.6z M309,25.6L83.4,231.8
				C119.5,63.2,203.9,45.1,309,25.6z M927.7,1726.7c-1.6,10.2-29.9,152.2-87.3,184.1c-61.7,34.3-218.9,74-333.5,75.7h-13.9
				c-114.6-1.6-271.7-41.4-333.5-75.7c-57.4-31.9-85.7-173.9-87.3-184.1l-0.7-49.5c31.6,123.7,62,134.5,63.5,136.6l0.6,0.8l0.9,0.5
				c129.3,75.5,317.8,85.8,356.5,87.1h13.9c38.7-1.3,227.3-11.5,356.5-87.1l1.5-1.4c1.4-2.2,31.8-13,63.5-136.6L927.7,1726.7z
				 M947.5,521.6L944.7,680c-21.8-11.1-38.4-9.3-43.1-8.4l0-2.2l-0.9,2.3c-0.3,0.1-0.4,0.1-0.4,0.1l-0.1,1.2l-6.8,17.4
				C834,841,802.3,973.3,799.2,1154.5c-5,293.3,67.8,395.8,68.6,398.1l5.3,6.1l3-6c31.1-85.2,27.1-681.1,26-834.7l41.8,25.7
				l-14.9,893.6c-32,140.4-66.2,163.1-70.8,170.6c-127.3,73.9-312.6,84-351.2,85.3h-13.9c-38.6-1.3-224-11.5-351.2-85.3
				c-4.6-7.5-38.7-29.8-70.8-170.6L56.1,743.7L98,718c-1.1,153.7-5.1,758.5,26,843.7l4.4,12l3.9-12.1c0.7-2.3,73.6-113.8,68.6-407.1
				C197.7,973.3,166,841,106.7,690.4l-6.8-17.3l-0.1-1.2c0,0-0.2,0-0.4-0.1l-0.9-2.3l0,2.2c-4.7-0.9-21.3-2.6-43.1,8.4l-2.8-159
				C35.4,354,82.7,256.1,88,245.7l54.1-49.4c-10.2,61.9-41.3,254.8-3.4,436.8l82.2,292l4.4-1.2c1.6-0.4,151.3-43,267.8-45.2h13.9
				c116.5,2.2,266.2,44.8,267.8,45.2l4.4,1.2L861.3,633c37.9-181.9,6.8-374.8-3.4-436.7l54.1,49.4
				C917.3,256.1,964.6,354,947.5,521.6z M892.3,1192.6l-0.2,17.8c-0.4,28.9-0.8,54.9-1.3,78.5l-82.2-54.8c-0.7-20.8-1-43.1-0.8-67.2
				l0.3-20.2c3.7-168.5,32.2-289.7,85-431.5C893.7,786.8,894.9,974.6,892.3,1192.6z M890.2,1314.1c-3.2,119.2-8.8,170.1-18.6,220.6
				c-13.5-47.2-53.5-106.6-62.2-280.9L890.2,1314.1z M191.3,1235.8l-82.1,54.7c-0.5-24.2-1-50.7-1.3-80l-0.2-17.8
				c-2.6-218-1.4-405.8-0.9-477.2c52.8,141.8,81.4,263,85,431.5l0.3,20.2C192.4,1191.6,192.1,1214.4,191.3,1235.8z M190.5,1255.6
				c-8.8,175.2-48.6,241.1-62.1,288.2c-9.8-50.4-15.4-106.9-18.6-227.9L190.5,1255.6z"/>
			<path style="fill:#8A959B;" d="M760,1476.4c-70.1,22.1-214.9,27.4-253.1,28.5h-13.9c-38.2-1-183-6.3-253.1-28.5l-4-1.3
				L151,1663.4l3.5,1.8c1.4,0.7,138,70.5,338.6,72.6h13.9c200.6-2.1,337.2-71.9,338.6-72.6l3.5-1.8L764,1475.1L760,1476.4z
				 M506.9,1728.8h-13.9c-180.6-1.9-308.6-59.1-331.1-69.9l79.4-172.7c73.5,21.8,214,26.7,251.7,27.7h13.9
				c37.7-0.9,178.2-5.9,251.7-27.7l79.4,172.7C815.5,1669.7,687.6,1726.9,506.9,1728.8z"/>
		</g>
	</g>
</g>
<g id="图层_2">
</g>
<g id="图层_3">
</g>
<g id="图层_4">
</g>
</svg>
