<?xml version="1.0" encoding="UTF-8"?>
<svg width="48px" height="38px" viewBox="0 0 48 38" version="1.1" xmlns="http://www.w3.org/2000/svg" xmlns:xlink="http://www.w3.org/1999/xlink">
    <title>icon_empty</title>
    <g id="页面-1" stroke="none" stroke-width="1" fill="none" fill-rule="evenodd" opacity="0.0799999982">
        <g id="画板" transform="translate(-273.000000, -388.000000)" fill="#000000">
            <g id="编组" transform="translate(269.000000, 378.000000)">
                <g id="default" transform="translate(4.000000, 10.000000)">
                    <path d="M40,0 L48,11 L48,34 C48,36.209139 46.209139,38 44,38 L44,38 L4,38 C1.790861,38 2.705415e-16,36.209139 0,34 L0,34 L0,11 L8,0 L40,0 Z M38.387,4 L9.636,4 L3,14 L45,14 L38.387,4 Z" id="Combined-Shape"></path>
                    <path d="M15,22 C16.3807119,22 17.5,23.1192881 17.5,24.5 C17.5,25.8807119 16.3807119,27 15,27 C13.6192881,27 12.5,25.8807119 12.5,24.5 C12.5,23.1192881 13.6192881,22 15,22 Z M24,22 C25.3807119,22 26.5,23.1192881 26.5,24.5 C26.5,25.8807119 25.3807119,27 24,27 C22.6192881,27 21.5,25.8807119 21.5,24.5 C21.5,23.1192881 22.6192881,22 24,22 Z M33,22 C34.3807119,22 35.5,23.1192881 35.5,24.5 C35.5,25.8807119 34.3807119,27 33,27 C31.6192881,27 30.5,25.8807119 30.5,24.5 C30.5,23.1192881 31.6192881,22 33,22 Z" id="Combined-Shape"></path>
                </g>
            </g>
        </g>
    </g>
</svg>