<?xml version="1.0" encoding="UTF-8"?>
<svg width="1066px" height="1066px" viewBox="0 0 1066 1066" version="1.1" xmlns="http://www.w3.org/2000/svg" xmlns:xlink="http://www.w3.org/1999/xlink">
    <!-- Generator: Sketch 53.2 (72643) - https://sketchapp.com -->
    <title>Web—Section Left Copy</title>
    <desc>Created with Sketch.</desc>
    <g id="Web—Section-Left-Copy" stroke="none" stroke-width="1" fill="none" fill-rule="evenodd">
        <g id="Image" transform="translate(0.000000, 40.000000)">
            <g id="Web" transform="translate(138.000000, 0.000000)">
                <rect id="Container" fill="#F2F2F2" x="0" y="0" width="792" height="692" rx="16"></rect>
                <path d="M16,0 L776,0 C784.836556,-1.623249e-15 792,7.163444 792,16 L792,54 L0,54 L0,16 C-1.082166e-15,7.163444 7.163444,1.623249e-15 16,0 Z" id="Header" fill="#C5CFD6"></path>
                <g id="Buttons" transform="translate(18.000000, 20.000000)" fill="#F2F2F2">
                    <circle id="buttons" cx="8" cy="8" r="8"></circle>
                    <circle id="buttons" cx="32" cy="8" r="8"></circle>
                    <circle id="buttons" cx="56" cy="8" r="8"></circle>
                </g>
                <g id="Content" transform="translate(32.000000, 86.000000)">
                    <g id="Components" transform="translate(588.000000, 178.000000)">
                        <rect id="Background" fill="#FFFFFF" x="0" y="0" width="140" height="388" rx="16"></rect>
                        <g id="Rows" transform="translate(36.000000, 36.000000)">
                            <rect id="Data" fill="#DDE3E9" x="0" y="0" width="68" height="52" rx="8"></rect>
                            <rect id="Data" fill="#AFB9C5" x="0" y="68" width="68" height="50" rx="8"></rect>
                            <rect id="Data" fill="#DDE3E9" x="0" y="134" width="68" height="50" rx="8"></rect>
                            <rect id="Data" fill="#DDE3E9" x="0" y="266" width="68" height="50" rx="8"></rect>
                            <rect id="Data" fill="#C5CFD6" x="0" y="200" width="68" height="50" rx="8"></rect>
                        </g>
                    </g>
                    <g id="Profile" transform="translate(588.000000, 0.000000)">
                        <rect id="Background" fill="#FFFFFF" x="0" y="0" width="140" height="162" rx="16"></rect>
                        <g id="Profile-Info" transform="translate(20.000000, 30.000000)" fill="#DDE3E9">
                            <circle id="Avatar" cx="50" cy="32" r="32"></circle>
                            <rect id="Name" x="0" y="72" width="100" height="12" rx="6"></rect>
                            <rect id="Name" x="16" y="92" width="68" height="12" rx="6"></rect>
                        </g>
                    </g>
                    <g id="Rows">
                        <g id="Row">
                            <rect id="Container" fill="#FFFFFF" x="0" y="0" width="572" height="94" rx="8"></rect>
                            <g id="Text-Stuff" transform="translate(18.000000, 28.200000)" fill="#DDE3E9">
                                <rect id="Label" x="0" y="0" width="456" height="14.1" rx="6"></rect>
                                <rect id="Label" x="0" y="23.5" width="306.082192" height="14.1" rx="6"></rect>
                            </g>
                            <g id="Check" transform="translate(496.870229, 33.000000)">
                                <circle id="Background" fill="#DDE3E9" cx="14" cy="14" r="14"></circle>
                                <circle id="Indicator" fill="#F2F2F2" cx="14" cy="14" r="6"></circle>
                            </g>
                        </g>
                        <g id="Row" transform="translate(0.000000, 110.000000)">
                            <rect id="Container" fill="#FFFFFF" x="0" y="0" width="572" height="78" rx="8"></rect>
                            <g id="Text-Stuff" transform="translate(18.000000, 23.400000)" fill="#DDE3E9">
                                <rect id="Label" x="0" y="0" width="456" height="11.7" rx="5.85"></rect>
                                <rect id="Label" x="0" y="19.5" width="306.082192" height="11.7" rx="5.85"></rect>
                            </g>
                            <g id="Check" transform="translate(496.870229, 25.000000)">
                                <circle id="Background" fill="#DDE3E9" cx="14" cy="14" r="14"></circle>
                                <circle id="Indicator" fill="#F2F2F2" cx="14" cy="14" r="6"></circle>
                            </g>
                        </g>
                        <g id="Row" transform="translate(0.000000, 204.000000)">
                            <rect id="Container" fill="#FFFFFF" x="0" y="0" width="572" height="78" rx="8"></rect>
                            <g id="Text-Stuff" transform="translate(18.000000, 23.400000)" fill="#DDE3E9">
                                <rect id="Label" x="0" y="0" width="456" height="11.7" rx="5.85"></rect>
                                <rect id="Label" x="0" y="19.5" width="306.082192" height="11.7" rx="5.85"></rect>
                            </g>
                            <g id="Check" transform="translate(496.870229, 25.000000)">
                                <circle id="Background" fill="#DDE3E9" cx="14" cy="14" r="14"></circle>
                                <circle id="Indicator" fill="#AFB9C5" cx="14" cy="14" r="6"></circle>
                            </g>
                        </g>
                        <g id="Row" transform="translate(0.000000, 486.000000)">
                            <rect id="Container" fill="#FFFFFF" x="0" y="0" width="572" height="78" rx="8"></rect>
                            <g id="Text-Stuff" transform="translate(18.000000, 23.400000)" fill="#DDE3E9">
                                <rect id="Label" x="0" y="0" width="456" height="11.7" rx="5.85"></rect>
                                <rect id="Label" x="0" y="19.5" width="306.082192" height="11.7" rx="5.85"></rect>
                            </g>
                            <g id="Check" transform="translate(496.870229, 25.000000)">
                                <circle id="Background" fill="#DDE3E9" cx="14" cy="14" r="14"></circle>
                                <circle id="Indicator" fill="#F2F2F2" cx="14" cy="14" r="6"></circle>
                            </g>
                        </g>
                        <g id="Row" transform="translate(0.000000, 392.000000)">
                            <rect id="Container" fill="#FFFFFF" x="0" y="0" width="572" height="78" rx="8"></rect>
                            <g id="Text-Stuff" transform="translate(18.000000, 23.400000)" fill="#DDE3E9">
                                <rect id="Label" x="0" y="0" width="456" height="11.7" rx="5.85"></rect>
                                <rect id="Label" x="0" y="19.5" width="306.082192" height="11.7" rx="5.85"></rect>
                            </g>
                            <g id="Check" transform="translate(496.870229, 25.000000)">
                                <circle id="Background" fill="#DDE3E9" cx="14" cy="14" r="14"></circle>
                                <circle id="Indicator" fill="#F2F2F2" cx="14" cy="14" r="6"></circle>
                            </g>
                        </g>
                        <g id="Row" transform="translate(0.000000, 298.000000)">
                            <rect id="Container" fill="#FFFFFF" x="0" y="0" width="572" height="78" rx="8"></rect>
                            <g id="Text-Stuff" transform="translate(18.000000, 23.400000)" fill="#DDE3E9">
                                <rect id="Label" x="0" y="0" width="456" height="11.7" rx="5.85"></rect>
                                <rect id="Label" x="0" y="19.5" width="306.082192" height="11.7" rx="5.85"></rect>
                            </g>
                            <g id="Check" transform="translate(496.870229, 25.000000)">
                                <circle id="Background" fill="#DDE3E9" cx="14" cy="14" r="14"></circle>
                                <circle id="Indicator" fill="#F2F2F2" cx="14" cy="14" r="6"></circle>
                            </g>
                        </g>
                    </g>
                </g>
            </g>
            <g id="Group-3" transform="translate(533.000000, 600.000000) scale(-1, 1) translate(-533.000000, -600.000000) translate(0.000000, 214.000000)">
                <g id="Humaaan" transform="translate(799.000000, 386.000000) scale(-1, 1) translate(-799.000000, -386.000000) translate(532.000000, 2.000000)">
                    <g id="Head/Front/Chongo" transform="translate(228.087273, 109.240391) rotate(-8.000000) translate(-228.087273, -109.240391) translate(107.047273, 16.958701)">
                        <g id="Head" stroke-width="1" transform="translate(96.088235, 55.144231)" fill="#B28B67">
                            <path d="M14.7019873,61.3526293 C6.50261892,51.7312936 0.953114854,39.9402141 1.88044024,26.7279709 C4.55232289,-11.3401808 57.561356,-2.96567249 67.8727104,16.2478614 C78.1840648,35.4613954 76.9588078,84.1981176 63.632301,87.632112 C58.3177085,89.0015843 46.9960462,85.6469257 35.4732354,78.7038136 L42.7058824,129.855769 L0,129.855769 L14.7019873,61.3526293 Z"></path>
                        </g>
                        <path d="M147.092396,50.4658232 C141.256919,48.6869771 132.785856,48.0837134 129.222332,48.4918162 C131.249427,43.6365974 132.053808,38.2272995 131.398044,32.960393 C130.760669,27.8426175 128.47312,23.4849802 126.357482,18.9187027 C125.382281,16.8139477 124.277125,14.7206642 122.629404,13.1107661 C120.950897,11.4706115 118.826132,10.3879776 116.598112,9.87146803 C114.318056,9.34276985 111.933928,9.38679218 109.65033,9.86659259 C108.64012,10.0788175 107.73371,10.5405501 106.74298,10.7972276 C105.728411,11.0602144 105.236246,10.4254038 104.499839,9.78743843 C102.725161,8.25024166 100.123488,7.49139415 97.8783048,7.2198036 C95.3593183,6.91523215 92.7455225,7.29508609 90.3431406,8.1229067 C88.0047822,8.92878785 85.7583726,10.2374126 84.067742,12.1438521 C83.3149884,12.992465 82.6317072,13.9583752 82.1876289,15.0248055 C82.0055023,15.4624477 81.9753976,15.7217063 81.538539,15.8820221 C81.1345095,16.0304362 80.6619611,16.034738 80.2449906,16.1759823 C76.2131411,17.5411048 72.7659492,20.6553623 70.8889691,24.653938 C69.7938938,26.9866915 69.2751668,31.0938458 69.4172446,35.697291 C69.5593224,40.3007363 73.717312,52.3124385 77.6062665,56.6937361 C81.0775694,60.6044105 86.1799746,63.1850943 91.1042036,64.3147619 C87.8357328,68.0494904 85.6600215,72.7164313 84.0511231,77.4628131 C82.3035524,82.6185883 81.2219629,87.9756904 80.8225649,93.4340295 C80.4431912,98.6200611 80.4080464,104.104355 81.6242216,109.179685 C82.7619338,113.925924 85.1949653,117.819534 89.2566471,120.28966 C91.1171445,121.421192 93.1189024,122.271239 95.132239,123.048154 C97.1164245,123.813741 99.1066036,124.558106 101.185054,124.987718 C105.118688,125.800482 109.651148,125.660958 112.681233,122.530927 C113.773311,121.40255 114.974366,119.984658 115.771119,118.6062 C116.05759,118.110483 116.230318,117.786266 115.882275,117.301734 C115.465304,116.721413 114.790877,116.276745 114.255259,115.822756 C111.20079,113.234328 109.310052,109.77879 108.833417,105.672238 C108.349835,101.505603 109.46943,96.1275653 113.521712,94.3091705 C118.523859,92.0644617 124.03261,94.6409871 128.478569,97.0427136 C130.368082,90.375983 134.247773,84.3733156 140.33042,81.3152691 C147.059841,77.9321457 154.781763,77.5362315 161.697261,74.633482 C163.49932,73.8770722 165.334753,73.0184216 166.661539,71.4772098 C167.215956,70.8330785 167.866408,69.9975145 168.087766,69.1456035 C168.378596,68.0265472 167.656628,67.0883123 167.098942,66.2158957 C164.141871,61.5901093 152.927873,52.2446694 147.092396,50.4658232 Z" id="hair" fill="#191847"></path>
                    </g>
                    <g id="Bottom/Standing/Jogging" transform="translate(0.000000, 343.859155)">
                        <polygon id="Leg" fill="#997659" points="231.4 0 363.665415 220.385814 462.826423 406.703443 484.184824 406.703443 318.039164 9.03063053e-13"></polygon>
                        <g id="Accessories/Shoe/Flat-Sneaker" transform="translate(445.000000, 353.037657)" fill="#E4E4E4">
                            <path d="M4.61805775,45.5356298 C2.73060941,50.6130406 1.78688525,54.4303526 1.78688525,56.9875657 C1.78688525,60.1883987 2.32369096,64.8592102 3.39730238,71 C7.13535652,71 40.7298785,71 104.180868,71 C106.799876,62.3992504 105.288033,57.7559824 99.6453392,57.0701961 C94.0026454,56.3844098 89.3151638,55.7651997 85.5828945,55.2125657 L38.9328987,34.5540924 C37.9229298,34.106838 36.7416168,34.5630082 36.2943624,35.5729772 C36.2880159,35.5873085 36.2818381,35.601714 36.2758303,35.6161905 L33.3490201,42.6686837 C28.1253615,45.0897076 23.8805966,46.3002195 20.6147253,46.3002195 C18.0339692,46.3002195 14.4968588,45.2932295 10.0033942,43.2792496 L10.0033988,43.2792393 C7.9874776,42.3756994 5.62078675,43.2774625 4.7172468,45.2933837 C4.68154978,45.3730286 4.64846905,45.4538206 4.61805775,45.5356298 Z" id="shoe"></path>
                        </g>
                        <path d="M435.286641,376.868389 L476.475941,364.449979 C458.429786,310.681786 436.311661,251.511861 410.121565,186.940204 C383.93147,122.368547 355.804282,60.0551454 325.74,2.84217094e-14 L209.40645,2.84217094e-14 C242.831466,75.9670014 278.266466,144.992774 315.711448,207.077317 C353.156431,269.16186 393.014828,325.758884 435.286641,376.868389 Z" id="Pant" fill="#DB2721"></path>
                        <path d="M222.707598,2.84217094e-14 C210.224227,77.4450881 186.147222,176.390153 183.875002,179.443627 C182.360189,181.479277 127.826519,199.691935 20.2739941,234.081601 L24.8876666,252.852911 C153.143801,234.409511 220.723845,220.100362 227.627801,209.925465 C237.983734,194.663119 289.692305,74.0902514 309.72,2.84217094e-14 L222.707598,2.84217094e-14 Z" id="Leg" fill="#B28B67"></path>
                        <path d="M58.0805239,217.85524 L66.2070055,248.087792 C162.135121,256.473201 220.912396,250.414216 242.538831,229.910836 C264.165266,209.407455 288.813018,132.77051 316.482087,-1.13686838e-13 L205.5511,-1.13686838e-13 C188.020629,108.721183 178.219955,165.363771 176.149077,169.927766 C174.0782,174.491761 134.722016,190.467586 58.0805239,217.85524 Z" id="Pant" fill="#FF4133"></path>
                        <g id="Accessories/Shoe/Flat-Sneaker" transform="translate(43.610000, 273.205021) rotate(80.000000) translate(-43.610000, -273.205021) translate(-10.680000, 237.723849)" fill="#E4E4E4">
                            <path d="M4.61805775,45.5356298 C2.73060941,50.6130406 1.78688525,54.4303526 1.78688525,56.9875657 C1.78688525,60.1883987 2.32369096,64.8592102 3.39730238,71 C7.13535652,71 40.7298785,71 104.180868,71 C106.799876,62.3992504 105.288033,57.7559824 99.6453392,57.0701961 C94.0026454,56.3844098 89.3151638,55.7651997 85.5828945,55.2125657 L38.9328987,34.5540924 C37.9229298,34.106838 36.7416168,34.5630082 36.2943624,35.5729772 C36.2880159,35.5873085 36.2818381,35.601714 36.2758303,35.6161905 L33.3490201,42.6686837 C28.1253615,45.0897076 23.8805966,46.3002195 20.6147253,46.3002195 C18.0339692,46.3002195 14.4968588,45.2932295 10.0033942,43.2792496 L10.0033988,43.2792393 C7.9874776,42.3756994 5.62078675,43.2774625 4.7172468,45.2933837 C4.68154978,45.3730286 4.64846905,45.4538206 4.61805775,45.5356298 Z" id="shoe"></path>
                        </g>
                    </g>
                    <g id="Body/Pointing-Forward" transform="translate(258.589705, 326.276467) rotate(-8.000000) translate(-258.589705, -326.276467) translate(30.749705, 160.346890)">
                        <path d="M282.574008,75.8100387 L344.400806,42.058935 C354.682224,29.8898042 364.812285,20.4387691 374.790988,13.7058297 C377.840158,12.4370309 383.172386,11.6690632 378.18574,20.4908039 C373.199095,29.3125445 368.351945,38.8152233 370.892445,41.5330106 C373.432944,44.250798 379.767907,40.4541688 382.798685,44.9697956 C384.819203,47.9802135 373.99642,52.7358263 350.330334,59.2366338 L305.40563,100.234958 L282.574008,75.8100387 Z M379.40625,104.286774 L406.564119,89.4166661 C410.374752,74.9643762 414.9299,67.6929405 420.229563,67.6023589 C424.300806,65.7142706 417.210765,83.9760886 424.928554,82.3924269 C432.646342,80.8087653 451.48326,66.8450731 454.728955,69.6802302 C459.530751,73.8746625 455.249174,86.7540003 450.20446,93.1607811 C440.775896,105.135047 432.969451,109.229884 413.67461,114.592098 C403.586271,117.395741 392.678992,123.015401 380.952774,131.451078 L379.40625,104.286774 Z" id="Skin" fill="#997659"></path>
                        <path d="M254.461874,61.6733827 C275.886651,64.8358679 305.122258,64.8507016 338.605547,50.4162447 L346.349823,78.8753177 C322.068615,96.3152584 289.849192,108.701013 264.154249,103.890777 C243.905218,100.100045 237.393961,73.9323851 254.461874,61.6733827 Z" id="Sleeve" fill="#2026A2" transform="translate(295.508247, 77.676077) rotate(-9.000000) translate(-295.508247, -77.676077) "></path>
                        <path d="M281.623226,111.426362 C304.613446,117.141149 343.166623,110.401837 397.282756,91.2084263 C410.705794,118.887103 416.910927,138.619877 415.898157,150.406747 C369.474487,174.57705 329.685395,185.353353 296.904498,186.064753 C297.94623,205.451844 295.578698,223.899108 287.625443,240.754977 C271.274899,275.407786 175.533384,243.315421 143.342153,249.631983 C123.183057,184.377745 162.161279,157.858686 162.192641,116.105222 C162.226986,70.3807282 199.062543,-1.27897692e-13 204.482157,-1.27897692e-13 L253.906054,3.28869143e-13 C256.63306,34.9203978 270.358838,73.4057019 281.623226,111.426362 Z" id="Clothes" fill="#1F28CF"></path>
                    </g>
                </g>
                <g id="Humaaan">
                    <g id="Head/Front/Airy" transform="translate(293.709984, 107.915343) rotate(7.000000) translate(-293.709984, -107.915343) translate(172.669984, 15.633653)">
                        <g id="Head" stroke-width="1" transform="translate(96.088235, 55.144231)" fill="#B28B67">
                            <path d="M14.7019873,61.3526293 C6.50261892,51.7312936 0.953114854,39.9402141 1.88044024,26.7279709 C4.55232289,-11.3401808 57.561356,-2.96567249 67.8727104,16.2478614 C78.1840648,35.4613954 76.9588078,84.1981176 63.632301,87.632112 C58.3177085,89.0015843 46.9960462,85.6469257 35.4732354,78.7038136 L42.7058824,129.855769 L0,129.855769 L14.7019873,61.3526293 Z"></path>
                        </g>
                        <path d="M139.619676,49.2478125 C133.991164,48.3250913 118.836148,47.6906949 116.041293,47.6911044 C114.255248,47.6911044 112.31972,48.0990185 111.261898,46.4595809 C110.395627,45.1170686 110.712974,42.846511 110.45444,41.2885743 C110.154248,39.478763 109.727851,37.6922961 109.296554,35.9103344 C108.069236,30.8396681 106.21335,26.0155523 103.616581,21.4863141 C98.7440647,12.9889243 91.6060125,6.33288138 82.5945125,2.45974588 C72.6432254,-1.81679858 61.3825262,-2.79603798 50.678511,-1.92860634 C39.2238097,-1.00056097 28.8547034,2.77960617 18.0395964,6.3369769 C7.73338764,9.72684076 -3.06129804,11.061162 -13.8404636,9.40575181 C-24.7009058,7.7380551 -32.9069907,1.85360857 -42.067566,-3.73145528 C-51.4454237,-9.44921406 -62.1625085,-13.1888355 -73.24881,-12.3291854 C-83.597495,-11.526463 -93.1354555,-7.25483318 -101.692786,-1.54854186 C-109.699151,3.79038109 -116.305434,10.2137984 -120.035175,19.2542544 C-124.047547,28.9790723 -124.043871,39.6536418 -117.445757,48.2480955 C-107.882066,60.7058554 -90.1274018,63.9273933 -75.3562855,63.6071235 C-66.8124327,63.4224154 -58.421331,61.86325 -50.3549276,59.0271008 C-39.5974086,55.2444763 -30.3012361,48.8333456 -20.2372236,43.6316227 C-15.5141912,41.1906913 -10.6322813,39.1859331 -5.51511839,37.741852 C-0.549481284,36.3399547 4.34141395,35.6969576 8.83736174,38.6956991 C13.5934766,41.8680907 17.8553965,44.9843737 23.2964409,46.9702925 C28.5161187,48.8755295 34.0449745,49.9411844 39.606096,49.8981815 C50.4261041,49.8146328 61.0921357,46.4444274 71.6009236,44.1869755 C80.1705072,42.3464478 89.3396594,40.5120633 98.0762891,42.281329 C101.721895,43.0197516 107.046947,44.5441051 108.36371,48.3316441 C86.2021348,52.3468943 77.4981996,79.7459389 83.7458843,99.8594588 C87.1178451,110.71546 107.387165,123.40601 115.268143,117.698847 C120.26097,114.083194 117.229811,109.336498 115.268143,106.203013 C111.511446,100.202254 110.226131,92.4940714 117.177532,88.316229 C123.173627,84.7129884 129.478107,93.2697286 129.597368,93.2603089 C131.245364,93.1304808 145.485489,85.0796245 155.296676,73.3313833 C164.975448,73.9049484 166.443858,67.5250436 164.132757,62.3074806 C161.821656,57.0899175 147.396506,50.5235677 139.619676,49.2478125 Z" id="hair" fill="#191847"></path>
                    </g>
                    <g id="Bottom/Standing/Sprint" transform="translate(0.000000, 345.859155)">
                        <path d="M368.840319,-17.4236836 C334.917927,10.2471502 348.221143,253.34426 345.958817,256.401033 C344.953338,257.759598 291.14373,269.248665 184.529993,290.868232 L189.162869,309.688962 C313.904072,303.686525 379.902828,296.055838 387.159136,286.796898 C397.548091,273.540749 410.297499,199.332403 425.407362,64.1718618 L368.840319,-17.4236836 Z" id="Leg" fill="#B28B67" transform="translate(304.968677, 146.132639) rotate(-55.000000) translate(-304.968677, -146.132639) "></path>
                        <path d="M202.55018,271.088676 L210.706033,301.401913 C303.715067,312.238143 364.998032,299.102343 386.543766,278.586803 C400.907589,264.909776 413.690446,190.903221 424.892338,56.5671378 L364.380612,-29.8525637 C283.622838,31.0890324 332.131075,231.077766 330.072017,235.648769 C328.01296,240.219773 278.976919,243.759671 202.55018,271.088676 Z" id="Pant" fill="#2F3676" transform="translate(313.721259, 137.720751) rotate(-55.000000) translate(-313.721259, -137.720751) "></path>
                        <g id="Accessories/Shoe/Flat-Sneaker" transform="translate(397.623369, 332.244131) rotate(20.000000) translate(-397.623369, -332.244131) translate(343.333369, 296.762960)" fill="#E4E4E4">
                            <path d="M4.61805775,45.5356298 C2.73060941,50.6130406 1.78688525,54.4303526 1.78688525,56.9875657 C1.78688525,60.1883987 2.32369096,64.8592102 3.39730238,71 C7.13535652,71 40.7298785,71 104.180868,71 C106.799876,62.3992504 105.288033,57.7559824 99.6453392,57.0701961 C94.0026454,56.3844098 89.3151638,55.7651997 85.5828945,55.2125657 L38.9328987,34.5540924 C37.9229298,34.106838 36.7416168,34.5630082 36.2943624,35.5729772 C36.2880159,35.5873085 36.2818381,35.601714 36.2758303,35.6161905 L33.3490201,42.6686837 C28.1253615,45.0897076 23.8805966,46.3002195 20.6147253,46.3002195 C18.0339692,46.3002195 14.4968588,45.2932295 10.0033942,43.2792496 L10.0033988,43.2792393 C7.9874776,42.3756994 5.62078675,43.2774625 4.7172468,45.2933837 C4.68154978,45.3730286 4.64846905,45.4538206 4.61805775,45.5356298 Z" id="shoe"></path>
                        </g>
                        <polygon id="Leg" fill="#997659" points="231.4 0 139.292187 220.385814 48.7645429 406.703443 70.1229441 406.703443 303.799164 0"></polygon>
                        <g id="Accessories/Shoe/Flat-Sneaker" transform="translate(42.720000, 353.037657)" fill="#E4E4E4">
                            <path d="M4.61805775,45.5356298 C2.73060941,50.6130406 1.78688525,54.4303526 1.78688525,56.9875657 C1.78688525,60.1883987 2.32369096,64.8592102 3.39730238,71 C7.13535652,71 40.7298785,71 104.180868,71 C106.799876,62.3992504 105.288033,57.7559824 99.6453392,57.0701961 C94.0026454,56.3844098 89.3151638,55.7651997 85.5828945,55.2125657 L38.9328987,34.5540924 C37.9229298,34.106838 36.7416168,34.5630082 36.2943624,35.5729772 C36.2880159,35.5873085 36.2818381,35.601714 36.2758303,35.6161905 L33.3490201,42.6686837 C28.1253615,45.0897076 23.8805966,46.3002195 20.6147253,46.3002195 C18.0339692,46.3002195 14.4968588,45.2932295 10.0033942,43.2792496 L10.0033988,43.2792393 C7.9874776,42.3756994 5.62078675,43.2774625 4.7172468,45.2933837 C4.68154978,45.3730286 4.64846905,45.4538206 4.61805775,45.5356298 Z" id="shoe"></path>
                        </g>
                        <path d="M56.9396169,367.998096 L104.398221,376.868389 C141.09308,323.100196 294.662565,102.632551 311.5,2.84217094e-14 L205.84645,2.84217094e-14 C149.617687,74.1929428 91.9173963,313.340474 56.9396169,367.998096 Z" id="Pant" fill="#5C63AB"></path>
                    </g>
                    <g id="Body/Jacket-2" transform="translate(267.000000, 325.450704) rotate(7.000000) translate(-267.000000, -325.450704) translate(39.160000, 159.521127)">
                        <path d="M352.6875,137.80146 L417.230322,109.549656 C428.53672,98.319975 439.454658,89.7848978 449.984137,83.9444249 C453.132652,82.9453343 458.511742,82.6434972 452.772674,90.9984807 C447.033605,99.3534643 441.373959,108.398913 443.66714,111.32705 C445.960321,114.255188 452.603166,111.023321 455.227551,115.785047 C456.977141,118.959531 445.779697,122.756877 421.635219,127.177084 L373.296456,164.116809 L352.6875,137.80146 Z M91.7491289,145.582888 L128.25,152.801393 C91.5421467,220.986051 71.8563844,257.12396 69.192713,261.215118 C63.1994525,270.420225 68.7912859,287.290498 70.8568858,296.1745 C57.8984703,299.181036 63.0088713,279.741078 46.610247,283.799965 C31.6423432,287.504728 18.9513657,297.012471 4.99440841,284.189763 C3.27848252,282.613286 2.02234365,277.685666 7.87280419,275.158314 C22.448435,268.861757 43.9827018,257.071582 47.474485,252.494161 C52.2361551,246.252028 66.9943698,210.614937 91.7491289,145.582888 Z" id="Skin" fill="#B28B67"></path>
                        <path d="M219.618679,17.5620359 L234.733255,13.596405 C270.981173,42.9857859 291.411521,119.424596 314.583162,127.751885 C336.491011,135.625 365.519561,123.611873 399.891673,107.813078 L412.875156,131.06116 C383.677171,168.646221 317.564355,204.025763 288.257523,189.694315 C241.40199,166.781309 222.749728,71.9327861 219.618679,17.5620359 Z" id="Coat-Back" fill="#DB2721" transform="translate(316.246917, 103.274449) rotate(5.000000) translate(-316.246917, -103.274449) "></path>
                        <path d="M160.3125,202.395722 C222.071565,202.395722 267.500239,202.395722 296.598522,202.395722 C302.826098,202.395722 301.65263,193.432853 300.752396,188.91014 C290.362609,136.712569 249.804823,80.446113 249.804823,6.14418427 L210.493519,0 C177.97802,52.1229469 166.733597,116.296848 160.3125,202.395722 Z" id="Shirt" fill="#DDE3E9"></path>
                        <path d="M146.719344,149.547659 C118.936523,199.497969 95.5835576,235.459801 76.6604492,257.433155 L48.09375,251.856301 C66.4951183,138.109643 119.783025,54.1575423 207.95747,1.59123225e-13 L208.40625,1.43665914e-13 L223.522646,0 C258.813706,119.905169 268.542827,199.798217 252.710008,239.679144 L130.03125,239.679144 C131.97215,210.497677 138.195425,179.637209 146.719347,149.547653 Z" id="Coat-Front" fill="#FF4133"></path>
                    </g>
                </g>
            </g>
            <g transform="translate(455.723001, 337.587397) rotate(-14.000000) translate(-455.723001, -337.587397) translate(354.723001, 269.587397)">
                <path d="M101.656077,109.213455 C101.652077,109.223455 101.648077,109.233455 101.642077,109.245455 C101.648077,109.235455 101.656077,109.195455 101.656077,109.213455" id="Fill-35" fill="#C5CFD6"></path>
                <path d="M101.646763,109.228652 C101.646763,109.230652 101.644763,109.234652 101.644763,109.238652 C101.644763,109.228652 101.662763,109.198652 101.646763,109.228652" id="Fill-37" fill="#C5CFD6"></path>
                <path d="M101.71622,109.059459 C101.70222,109.099459 101.68422,109.137459 101.66822,109.177459 C101.67622,109.157459 101.68422,109.141459 101.69222,109.121459 C101.48422,109.641459 101.61622,109.303459 101.71622,109.059459" id="Fill-39" fill="#C5CFD6"></path>
                <path d="M101.671452,109.179907 C101.663452,109.197907 101.655452,109.217907 101.647452,109.235907 C101.589452,109.347907 101.671452,109.179907 101.671452,109.179907" id="Fill-41" fill="#C5CFD6"></path>
                <polygon id="Fill-43" fill="#C5CFD6" points="101.649077 109.228157 101.649077 109.228157 101.649077 109.226157"></polygon>
                <path d="M101.648077,109.229157 C101.648077,109.227157 101.648077,109.227157 101.650077,109.225157 C101.648077,109.227157 101.648077,109.227157 101.648077,109.229157" id="Fill-45" fill="#C5CFD6"></path>
                <path d="M101.638588,109.243508 C101.626588,109.267508 101.694588,109.151508 101.638588,109.243508" id="Fill-47" fill="#C5CFD6"></path>
                <path d="M101.647077,109.229157 L101.651077,109.225157 C101.649077,109.227157 101.649077,109.229157 101.647077,109.229157" id="Fill-49" fill="#C5CFD6"></path>
                <rect id="Photo-Background" fill="#2B44FF" x="1.14907125" y="1.63689391" width="200" height="132" rx="8"></rect>
                <g id="icons8-night_landscape" transform="translate(18.115258, 40.185145)" fill="#000000" fill-opacity="0.2">
                    <polygon id="Mountains" points="58.6230159 0 0.942437361 94 116.303594 94"></polygon>
                    <polygon id="Mountains" points="118.094917 25.1785714 67.1019415 94 169.087892 94"></polygon>
                </g>
                <circle id="Sun" fill="#FFFFFF" cx="158.033153" cy="47.2849587" r="19"></circle>
            </g>
        </g>
    </g>
</svg>