<?xml version="1.0" encoding="UTF-8"?>
<svg width="14px" height="15px" viewBox="0 0 14 15" version="1.1" xmlns="http://www.w3.org/2000/svg" xmlns:xlink="http://www.w3.org/1999/xlink">
    <title>通用图标/取消全屏 (窗口 缩小)</title>
    <defs>
        <filter color-interpolation-filters="auto" id="filter-1">
            <feColorMatrix in="SourceGraphic" type="matrix" values="0 0 0 0 1.000000 0 0 0 0 1.000000 0 0 0 0 1.000000 0 0 0 1.000000 0"></feColorMatrix>
        </filter>
    </defs>
    <g id="2.8.0" stroke="none" stroke-width="1" fill="none" fill-rule="evenodd">
        <g id="画板" transform="translate(-1618.000000, -3651.000000)">
            <g id="通用图标/取消全屏-(窗口-缩小)" transform="translate(1613.000000, 3646.355011)" filter="url(#filter-1)">
                <g id="编组" transform="translate(5.000750, 4.999750)" fill="#000000">
                    <path d="M11.4781182,3.22838183 L12.9096882,4.65995187 C12.9877931,4.73805673 12.9877931,4.86468973 12.9096882,4.94279458 C12.8721809,4.98030186 12.8213102,5.0013732 12.7682669,5.0013732 L9.0084689,5.0013732 L9.0084689,5.0013732 L9.0084689,1.24157525 C9.0084689,1.1311183 9.0980119,1.04157525 9.2084689,1.04157525 C9.2615122,1.04157525 9.312383,1.06264662 9.3498902,1.1001539 L10.7711182,2.52138183 L10.7711182,2.52138183 L13.14625,0.14625 C13.34125,-0.04875 13.65825,-0.04875 13.85325,0.14625 C14.04825,0.34225 14.04825,0.65825 13.85225,0.85425 L11.4781182,3.22838183 Z M2.52125707,3.22838183 L0.14712524,0.85425 C-0.0488747602,0.65825 -0.0488747602,0.34225 0.14612524,0.14625 C0.34112524,-0.04875 0.65812524,-0.04875 0.85312524,0.14625 L3.22825707,2.52138183 L4.649485,1.1001539 C4.72758985,1.02204904 4.85422285,1.02204904 4.93232771,1.1001539 C4.96983498,1.13766117 4.99090635,1.18853195 4.99090635,1.24157525 L4.99090635,5.0013732 L4.99090635,5.0013732 L1.23110838,5.0013732 C1.12065143,5.0013732 1.03110838,4.91183018 1.03110838,4.80137323 C1.03110838,4.74832993 1.05217975,4.69745915 1.08968702,4.65995187 L2.52125707,3.22838183 L2.52125707,3.22838183 Z M13.85225,13.1471232 C14.04825,13.3431232 14.04825,13.6591232 13.85325,13.8551232 C13.65825,14.0501232 13.34125,14.0501232 13.14625,13.8551232 L10.7711182,11.4799914 L9.3498902,12.9012193 C9.2717854,12.9793242 9.1451524,12.9793242 9.0670475,12.9012193 C9.0295403,12.8637121 9.0084689,12.8128413 9.0084689,12.759798 L9.0084689,9 L9.0084689,9 L12.7682669,9 C12.8787238,9 12.9682669,9.0895431 12.9682669,9.2 C12.9682669,9.2530433 12.9471955,9.3039141 12.9096882,9.3414214 L11.4781182,10.7729914 L11.4781182,10.7729914 L13.85225,13.1471232 Z M1.23110838,9 L4.99090635,9 L4.99090635,9 L4.99090635,12.759798 C4.99090635,12.8702549 4.9013633,12.959798 4.79090635,12.959798 C4.73786305,12.959798 4.68699227,12.9387266 4.649485,12.9012193 L3.22825707,11.4799914 L3.22825707,11.4799914 L0.85312524,13.8551232 C0.65812524,14.0501232 0.34112524,14.0501232 0.14612524,13.8551232 C-0.0488747602,13.6591232 -0.0488747602,13.3431232 0.14712524,13.1471232 L2.52125707,10.7729914 L1.08968702,9.3414214 C1.01158216,9.2633165 1.01158216,9.1366835 1.08968702,9.0585786 C1.1271943,9.0210714 1.17806508,9 1.23110838,9 Z" id="path-1"></path>
                </g>
            </g>
        </g>
    </g>
</svg>