<?xml version="1.0" encoding="UTF-8"?>
<svg width="14px" height="16px" viewBox="0 0 14 16" version="1.1" xmlns="http://www.w3.org/2000/svg" xmlns:xlink="http://www.w3.org/1999/xlink">
    <title>通用图标/修改密码</title>
    <g id="2.8.0评审" stroke="none" stroke-width="1" fill="none" fill-rule="evenodd" fill-opacity="0.701960784">
        <g id="个人中心" transform="translate(-124.000000, -502.000000)" fill="#000000">
            <g id="编组" transform="translate(119.000000, 497.500000)">
                <g id="common_password_editing" transform="translate(5.000000, 5.000000)">
                    <path d="M6,0 C8.2,0 10,1.8 10,4 L10,4 L10,6 L10.006,6 L9.007,7 L1,7 L1,14 L11,14 L11,9.249 L12,8.25 L12,14 C12,14.4642857 11.5688776,14.9285714 11.1069606,14.9925292 L11,15 L1,15 C0.4,15 0,14.5 0,14 L0,14 L0,7 C0,6.4 0.4,6 1,6 L1,6 L2,6 L2,4 C2,1.8 3.8,0 6,0 Z M13.6079375,4.38587933 L13.677373,4.44385886 L13.677373,4.44385886 C13.8726665,4.63915236 13.8727533,4.95575891 13.677567,5.1511595 L6.7849842,12.051308 L5.5674773,12.538876 L6.0778774,11.3442012 L12.9704602,4.44405274 C13.1438362,4.27048644 13.4131022,4.25106416 13.6079375,4.38587933 Z M6,1 C4.4,1 3,2.3 3,4 L3,4 L3,6 L9,6 L9,4 C9,2.3 7.6,1 6,1 Z"></path>
                </g>
            </g>
        </g>
    </g>
</svg>