<?xml version="1.0" encoding="UTF-8"?>
<svg width="15px" height="15px" viewBox="0 0 15 15" version="1.1" xmlns="http://www.w3.org/2000/svg" xmlns:xlink="http://www.w3.org/1999/xlink">
    <title>通用图标/退出</title>
    <g id="2.8.0评审" stroke="none" stroke-width="1" fill="none" fill-rule="evenodd" fill-opacity="0.701960784">
        <g id="个人中心" transform="translate(-124.000000, -592.000000)" fill="#000000">
            <g id="编组" transform="translate(119.000000, 587.000000)">
                <g id="path-1" transform="translate(5.000000, 5.000000)">
                    <path d="M3.54740627,1.12494133 C1.35929678,2.48427669 0,4.87557909 0,7.5 C0,11.6421356 3.35786438,15 7.5,15 C11.6421356,15 15,11.6421356 15,7.5 C15,4.87778944 13.6430034,2.48822024 11.4578749,1.12822524 C11.2234317,0.9823109 10.915091,1.05407772 10.7691767,1.28852092 C10.6232623,1.52296413 10.6950291,1.83130484 10.9294723,1.97721918 C12.824282,3.15652362 14,5.2268747 14,7.5 C14,11.0898509 11.0898509,14 7.5,14 C3.91014913,14 1,11.0898509 1,7.5 C1,5.2249605 2.17771323,3.15310358 4.07510493,1.97437298 C4.30966901,1.82865301 4.38169139,1.52037189 4.23597142,1.28580782 C4.09025146,1.05124375 3.78197034,0.97922137 3.54740627,1.12494133 Z M7.5,0 C7.7761424,0 8,0.22385763 8,0.5 L8,7 C8,7.2761424 7.7761424,7.5 7.5,7.5 C7.2238576,7.5 7,7.2761424 7,7 L7,0.5 C7,0.22385763 7.2238576,0 7.5,0 Z"></path>
                </g>
            </g>
        </g>
    </g>
</svg>