<?xml version="1.0" encoding="utf-8"?>
<!-- Generator: Adobe Illustrator 18.0.0, SVG Export Plug-In . SVG Version: 6.00 Build 0)  -->
<!DOCTYPE svg PUBLIC "-//W3C//DTD SVG 1.1//EN" "http://www.w3.org/Graphics/SVG/1.1/DTD/svg11.dtd">
<svg version="1.1" id="图层_1" xmlns="http://www.w3.org/2000/svg" xmlns:xlink="http://www.w3.org/1999/xlink" x="0px" y="0px"
	 viewBox="0 217 1024 333" enable-background="new 0 217 1024 333" xml:space="preserve">
<title>logo</title>
<path fill="#FFFFFF" d="M720,404.2c0,47.5,0,94.9,0,142.9c-20,0-39.4,0-59.7,0c-0.1-2.1-0.3-4.3-0.3-6.5c0-63,0.1-125.9-0.1-188.9
	c0-6,1.4-7.9,7.6-7.8c27.1,0.3,54.2,0.3,81.4,0c4.9-0.1,7.3,1.8,9.5,5.9c21,39.3,42.1,78.5,63.2,117.7c1.2,2.2,2.4,4.3,4.2,7.3
	c8.1-15,15.7-29.1,23.3-43.2c14.7-27.3,29.5-54.5,44-81.9c2.2-4.1,4.7-5.8,9.6-5.8c27.3,0.3,54.7,0.2,82,0c5.1,0,6.7,1.4,6.7,6.6
	c-0.2,63.7-0.1,127.3-0.1,191c0,1.8-0.3,3.6-0.5,5.7c-19.8,0-39.2,0-59.3,0c0-47.8,0-95.2,0-142.7c-0.5-0.2-1.1-0.5-1.6-0.7
	c-1.2,1.9-2.5,3.8-3.6,5.8c-24.6,43.9-49.2,87.7-73.5,131.7c-2.7,4.9-5.7,6.7-11.2,6.4c-11-0.4-22.1-0.3-33.1,0
	c-4.5,0.1-6.9-1.3-9.1-5.3c-24.5-44.2-49.2-88.2-73.8-132.3c-1.2-2.2-2.5-4.3-3.7-6.4C721.2,403.8,720.6,404,720,404.2z"/>
<path fill="#FFFFFF" d="M546.9,469.3c20.6,0,40.5,0,61.4,0c0.4,20.2,3,40.5-9.8,58.3c-8.8,12.2-22,17.1-36,19.5
	c-9.7,1.7-19.6,2.5-29.4,2.6c-34.5,0.3-68.9,0.4-103.4,0c-11.4-0.1-23-1.3-34.1-3.5c-32.9-6.6-48.7-22.3-50.8-55.8
	c-2-30.6-1.6-61.6,0.7-92.2c2.4-31.8,18.9-47.5,50.3-52.9c9.9-1.7,20-2.8,30.1-2.9c33.1-0.3,66.2-0.6,99.2,0.3
	c14.3,0.4,28.8,2.7,42.9,5.5c20.6,4,33.3,16.9,36.7,37.8c1.7,10.3,1.9,20.8,2.9,31.8c-21.5,0-41.6,0-61.6,0
	c-0.4-0.6-0.8-0.9-0.9-1.3c-1.9-16.3-7.2-21.8-23.8-22.1c-27.3-0.5-54.7-0.6-82,0.1c-19.8,0.5-30.4,10.9-31,30.5
	c-0.5,17.1-0.3,34.4,1.4,51.4c1.3,13,8.3,18.6,21.5,20.3c8.2,1,16.5,1.3,24.7,1.3c22.7-0.1,45.5,0.3,68.2-1
	c16.6-0.9,20.6-6.2,22.3-22.9C546.6,472.7,546.7,471.4,546.9,469.3z"/>
<path fill="#FFFFFF" d="M158,394.3c-29.7,0-58.1,0-87.3,0c-0.2-2.9-0.5-5.3-0.5-7.7c0-11.5,0.4-23-0.2-34.5
	c-0.3-6.9,2.1-8.7,8.6-8.2c7.8,0.5,15.6,0.1,23.4,0.1c65.5,0,131,0,196.4,0c2.7,0,5.4,0,8.5,0c0,16.9,0,33.1,0,50.2
	c-28.8,0-57.6,0-87.2,0c0,51.3,0,101.8,0,152.8c-20.9,0-41,0-61.9,0C158,496.6,158,445.9,158,394.3z"/>
<path fill="#FFFFFF" d="M306,308.9c18.3,3,35.1,5.9,52,8.7c0,0.4-0.1,0.8-0.1,1.1c-10.8-1.1-21.7-2.1-32.5-3.2
	c-43.5-4.5-87.1-5.9-130.8-3.7c-38.8,2-77.3,6.7-114.1,20.4c-7.3,2.7-14.3,6.3-21,10.1c-7.6,4.3-12.6,10.9-16.2,19
	c-3.7,8.3-8.8,16-13.2,23.9c-2.5,4.5-5,9.1-8.8,13.3c1.8-5.4,3.3-11,5.4-16.3c3.3-8.3,7.7-16.2,10.2-24.7
	c3.8-12.9,12-21.4,23.2-27.7c17-9.7,35.7-14.5,54.7-17.8c49.9-8.7,100.1-8.4,150.5-6.1c6.9,0.3,13.8,1.2,20.6,1.1c3,0,6.2-1.4,9-2.7
	c35.7-17.3,71.5-34.6,107-52.3c37.8-18.8,78.1-28.1,119.9-30.8c27-1.8,54.2-2.3,81.2-1.9c61.7,0.8,120.9,15,178.4,36.7
	c36.9,14,73.1,30.1,111.8,38.2c21,4.4,42.6,6,63.9,9.5c9.4,1.5,18.8,4.1,27.9,7c4.1,1.3,7.6,4.5,11.1,7.5
	c-33.8-10.4-68.1-8.1-102.3-5.8c-60.4,4.1-120.7,10.2-181.5,9.3c51.5-4.5,103.3-7.2,154.8-19.5c-0.8-0.4-1.6-0.9-2.4-1.2
	c-42.5-17.1-84.5-35.8-127.8-50.9c-58.2-20.2-118.8-26-180.5-24.6c-63.6,1.4-123.7,14.2-179.5,45.7c-21,11.8-42.7,22.4-64,33.5
	C311,305.7,309.1,307,306,308.9z"/>
</svg>
