<?xml version="1.0" encoding="UTF-8"?>
<svg width="16px" height="17px" viewBox="0 0 16 17" version="1.1" xmlns="http://www.w3.org/2000/svg" xmlns:xlink="http://www.w3.org/1999/xlink">
    <title>通用图标/开启报警通知</title>
    <g id="2.8.0评审" stroke="none" stroke-width="1" fill="none" fill-rule="evenodd" fill-opacity="0.701960784">
        <g id="个人中心" transform="translate(-123.000000, -461.000000)" fill="#000000">
            <g id="编组" transform="translate(119.000000, 458.000000)">
                <g id="形状结合" transform="translate(4.000000, 3.000000)">
                    <path d="M12.4926885,9 L12.6996874,10.184405 C12.9839851,10.2548369 13.2499102,10.3670203 13.4937435,10.5146979 L14.4699231,9.8127615 L15.1765476,10.5193073 L14.4827951,11.5082264 C14.6291085,11.7511419 14.7395004,12.0160799 14.810341,12.2975848 L16,12.4921354 L16,13.492166 L14.810341,13.7005447 C14.7415979,13.9789547 14.6315044,14.2454884 14.4837304,14.4912614 L15.1884842,15.4691805 L14.480969,16.1766392 L13.4946343,15.4838993 C13.2486243,15.633361 12.9816164,15.7451436 12.7024934,15.8155282 L12.4927108,17 L11.491678,17 L11.2957027,15.8187792 C11.0154098,15.7499081 10.7471012,15.6391826 10.4998204,15.4903345 L9.5190533,16.176617 L8.8124288,15.4691805 L9.506159,14.499055 C9.3579973,14.2534452 9.2448215,13.9857683 9.1740032,13.7000994 L8,13.4921883 L8,12.49218 L9.1758516,12.2966719 C9.2467145,12.0105575 9.3598457,11.743326 9.5070498,11.4981615 L8.8225171,10.5193295 L9.5300769,9.8127837 L10.5035173,10.5073496 C10.7508748,10.3591189 11.0191691,10.2490236 11.299355,10.1807754 L11.4916557,9 L12.4926885,9 Z M7.4162763,15.0005324 C7.5724229,15.3578 7.7691147,15.6932946 8.0005351,16.0011995 L0.5,16 C0.224,16 0,15.776 0,15.5 C0,15.2546667 0.17698765,15.0504198 0.41016187,15.0080604 L0.5,15 L7.4162763,15.0005324 Z M12.0004343,11.6057355 C11.2303405,11.6057355 10.6056694,12.2299586 10.6056694,12.9999666 C10.6056694,13.7704199 11.2303405,14.394643 12.0004343,14.394643 C12.7705503,14.394643 13.3952882,13.7704199 13.3952882,12.9999666 C13.3952882,12.2299586 12.7705503,11.6057355 12.0004343,11.6057355 Z M7.5,2.969 C10.3846465,2.969 12.779614,5.23102486 12.9856303,8.0985899 C12.6673727,8.0334575 12.3375936,8 12,8 L11.9727727,8.0011067 C11.7240458,5.73592858 9.8024782,3.974 7.5,3.974 C5.031,3.974 3,6.001 3,8.5 L3,13 L5,13 L5,8.5 C5,8.2238576 5.2238576,8 5.5,8 C5.7761424,8 6,8.2238576 6,8.5 L6,13 L7,13 C7,13.3425323 7.0344436,13.6770198 7.1000563,14.000188 L3,14 C2.05555556,14 2.00308642,13.0518302 2.00017147,12.9464781 L2,8.5 C2,5.445 4.482,2.969 7.5,2.969 Z M3.11926257,1.34565329 L3.1885,1.4035 L3.8955,2.1105 C4.09073266,2.30573266 4.09073266,2.62226734 3.8955,2.8175 C3.72195986,2.99104014 3.45257614,3.01032238 3.25773743,2.87534671 L3.1885,2.8175 L2.4815,2.1105 C2.28626734,1.91526734 2.28626734,1.59873266 2.4815,1.4035 C2.65504014,1.22995986 2.92442386,1.21067762 3.11926257,1.34565329 Z M12.4062563,1.4035 C12.5797964,1.57704014 12.5990786,1.84642386 12.464103,2.04126257 L12.4062563,2.1105 L11.6992563,2.8175 C11.5040236,3.01273266 11.1874889,3.01273266 10.9922563,2.8175 C10.8187161,2.64395986 10.7994339,2.37457614 10.9344096,2.17973743 L10.9922563,2.1105 L11.6992563,1.4035 C11.8944889,1.20826734 12.2110236,1.20826734 12.4062563,1.4035 Z M7.5,0 C7.7761424,0 8,0.22385763 8,0.5 L8,1.5 C8,1.77614237 7.7761424,2 7.5,2 C7.2238576,2 7,1.77614237 7,1.5 L7,0.5 C7,0.22385763 7.2238576,0 7.5,0 Z"></path>
                </g>
            </g>
        </g>
    </g>
</svg>