<?xml version="1.0" encoding="UTF-8"?>
<svg width="16px" height="16px" viewBox="0 0 16 16" version="1.1" xmlns="http://www.w3.org/2000/svg" xmlns:xlink="http://www.w3.org/1999/xlink">
    <title>通用图标/二次开发</title>
    <defs>
        <filter color-interpolation-filters="auto" id="filter-1">
            <feColorMatrix in="SourceGraphic" type="matrix" values="0 0 0 0 0.298039 0 0 0 0 0.298039 0 0 0 0 0.298039 0 0 0 1.000000 0"></feColorMatrix>
        </filter>
    </defs>
    <g id="2.8.0评审" stroke="none" stroke-width="1" fill="none" fill-rule="evenodd">
        <g id="个人中心" transform="translate(-123.000000, -293.000000)">
            <g id="软件开发包" transform="translate(119.000000, 289.000000)" filter="url(#filter-1)">
                <g transform="translate(4.000000, 4.000000)">
                    <path d="M3.49090909,7.85454545 L4.97454545,9.83272727 C5.16734303,10.0897907 5.11524525,10.4544751 4.85818181,10.6472727 C4.60111837,10.8400703 4.23643395,10.7879725 4.04363636,10.5309091 L2.29818182,8.20363636 C2.14283609,7.99683245 2.14283609,7.71225845 2.29818182,7.50545455 L4.04363636,5.17818182 C4.23643395,4.92111838 4.60111837,4.86902061 4.85818181,5.06181819 C5.11524525,5.25461578 5.16734303,5.61930019 4.97454545,5.87636364 L3.49090909,7.85454545 Z M11.0254545,9.83272727 C10.832657,10.0897907 10.8847547,10.4544751 11.1418182,10.6472727 C11.3988816,10.8400703 11.7635661,10.7879725 11.9563636,10.5309091 L13.7018182,8.20363636 C13.8571639,7.99683245 13.8571639,7.71225845 13.7018182,7.50545455 L11.9563636,5.17818182 C11.763566,4.92111838 11.3988816,4.86902061 11.1418182,5.06181819 C10.8847547,5.25461577 10.832657,5.61930019 11.0254545,5.87636364 L12.5090909,7.85454545 L11.0254545,9.83272727 Z M7.98603636,10.3080727 C7.94413829,10.5142611 7.79418419,10.6817645 7.59387043,10.7461344 C7.39355666,10.8105042 7.17409646,10.7617103 7.01992935,10.6185266 C6.86576224,10.4753428 6.8009108,10.2600804 6.85032727,10.0555636 L8.01396364,4.8192 C8.05586171,4.61301165 8.20581581,4.44550824 8.40612957,4.38113838 C8.60644334,4.31676852 8.82590354,4.36556243 8.98007065,4.50874618 C9.13423776,4.65192992 9.1990892,4.86719236 9.14967273,5.07170909 L7.98603636,10.3080727 Z" id="形状" fill="#000000" fill-rule="nonzero"></path>
                    <path d="M1.74545455,1.16363636 C1.42412524,1.16363636 1.16363636,1.42412524 1.16363636,1.74545455 L1.16363636,14.2545455 C1.16363636,14.5758748 1.42412524,14.8363636 1.74545455,14.8363636 L14.2545455,14.8363636 C14.5758748,14.8363636 14.8363636,14.5758748 14.8363636,14.2545455 L14.8363636,1.74545455 C14.8363636,1.42412524 14.5758748,1.16363636 14.2545455,1.16363636 L1.74545455,1.16363636 Z M1.74545455,0 L14.2545455,0 C15.2185334,0 16,0.781466618 16,1.74545455 L16,14.2545455 C16,15.2185334 15.2185334,16 14.2545455,16 L1.74545455,16 C0.781466618,16 0,15.2185334 0,14.2545455 L0,1.74545455 C0,0.781466618 0.781466618,0 1.74545455,0 Z" id="形状" fill="#000000" fill-rule="nonzero"></path>
                </g>
            </g>
        </g>
    </g>
</svg>