<?xml version="1.0" encoding="UTF-8"?>
<svg width="15px" height="15px" viewBox="0 0 15 15" version="1.1" xmlns="http://www.w3.org/2000/svg" xmlns:xlink="http://www.w3.org/1999/xlink">
    <title>通用图标/关于</title>
    <g id="2.8.0评审" stroke="none" stroke-width="1" fill="none" fill-rule="evenodd" fill-opacity="0.701960784">
        <g id="个人中心" transform="translate(-123.000000, -551.000000)" fill="#000000">
            <g id="编组" transform="translate(119.000000, 547.000000)">
                <g id="common_info" transform="translate(4.000000, 4.000000)">
                    <path d="M7.5,0 C11.6421356,0 15,3.35786438 15,7.5 C15,11.6421356 11.6421356,15 7.5,15 C3.35786438,15 0,11.6421356 0,7.5 C0,3.35786438 3.35786438,0 7.5,0 Z M7.5,1 C3.91014913,1 1,3.91014913 1,7.5 C1,11.0898509 3.91014913,14 7.5,14 C11.0898509,14 14,11.0898509 14,7.5 C14,3.91014913 11.0898509,1 7.5,1 Z M7.5,6 C7.7761424,6 8,6.2238576 8,6.5 L8,10.5 C8,10.7761424 7.7761424,11 7.5,11 C7.2238576,11 7,10.7761424 7,10.5 L7,6.5 C7,6.2238576 7.2238576,6 7.5,6 Z M8,4 L8,5 L7,5 L7,4 L8,4 Z"></path>
                </g>
            </g>
        </g>
    </g>
</svg>