<?xml version="1.0" encoding="UTF-8"?>
<svg width="16px" height="16px" viewBox="0 0 16 16" version="1.1" xmlns="http://www.w3.org/2000/svg" xmlns:xlink="http://www.w3.org/1999/xlink">
    <title>通用图标/主题色</title>
    <defs>
        <filter color-interpolation-filters="auto" id="filter-1">
            <feColorMatrix in="SourceGraphic" type="matrix" values="0 0 0 0 0.298039 0 0 0 0 0.298039 0 0 0 0 0.298039 0 0 0 1.000000 0"></feColorMatrix>
        </filter>
    </defs>
    <g id="2.8.0评审" stroke="none" stroke-width="1" fill="none" fill-rule="evenodd">
        <g id="个人中心" transform="translate(-123.000000, -252.000000)">
            <g id="color" transform="translate(119.000000, 248.000000)" filter="url(#filter-1)">
                <g transform="translate(4.000000, 4.000000)">
                    <path d="M7.86810634,15.9917923 C3.54792034,15.9330062 0.0599899647,12.4450758 0.00120379864,8.12488979 C-0.0716378972,3.90007177 3.16981732,0.330828949 7.39463534,0.00304134372 L7.61316041,0.00304134372 C8.48726069,-0.0333794957 9.28851928,0.257987254 9.90767365,0.840720786 C10.5632489,1.45987514 10.9274573,2.33397542 10.9274573,3.24449656 C10.9274573,3.3537591 10.9274573,3.46302163 10.9638782,3.57228417 C11.0731407,4.30070107 11.6922951,4.91985543 12.420712,5.02911797 C12.5299745,5.0655388 12.639237,5.0655388 12.7484996,5.0655388 C13.6590207,5.0655388 14.533121,5.42974725 15.1522753,6.08532248 C15.7350089,6.70447685 16.0627965,7.50573544 15.9899548,8.37983572 L15.9899548,8.59836079 C15.698588,12.7503371 12.2021869,15.9917923 8.01378971,15.9917923 L7.86810634,15.9917923 Z M7.50389787,1.45987514 C4.11675928,1.71482107 1.3851959,4.70133036 1.4580376,8.08846895 C1.53087929,11.6212909 4.33528435,14.4621168 7.90452718,14.5349585 C11.3280866,14.5713794 14.2781751,11.8762368 14.5695418,8.48909825 L14.5695418,8.30699402 C14.6059627,7.86994388 14.4238585,7.43289374 14.1324917,7.10510613 C13.8047041,6.74089769 13.2948122,6.55879346 12.7849204,6.55879346 C12.6028162,6.55879346 12.3842911,6.55879346 12.2021869,6.52237262 C10.8546156,6.30384755 9.76199027,5.2112222 9.5434652,3.86365092 C9.47062351,3.60870501 9.47062351,3.42660078 9.47062351,3.24449656 C9.47062351,2.73460472 9.25209844,2.22471291 8.92431083,1.89692528 C8.59652323,1.60555852 8.19589393,1.4234543 7.79526464,1.4234543 L7.72242294,1.4234543 C7.64958125,1.4234543 7.57673957,1.4234543 7.50389787,1.45987514 Z M6.55695591,6.15816416 C5.75569733,6.15816416 5.1001221,5.50258895 5.1001221,4.70133036 C5.1001221,3.90007177 5.75569731,3.24449656 6.55695591,3.24449656 C7.35821452,3.24449656 8.01378971,3.90007177 8.01378971,4.70133036 C8.01378971,5.50258895 7.3582145,6.15816416 6.55695591,6.15816416 Z M6.19274745,10.1644571 C6.81190182,10.1644571 7.2853728,10.6379281 7.2853728,11.2570825 C7.2853728,11.8762368 6.81190182,12.3497078 6.19274745,12.3497078 C5.57359308,12.3497078 5.1001221,11.8762368 5.1001221,11.2570825 C5.1001221,10.6379281 5.57359308,10.1644571 6.19274745,10.1644571 Z M4.37170521,9.253936 C3.75255084,9.253936 3.27907986,8.78046502 3.27907986,8.16131065 C3.27907986,7.54215628 3.75255084,7.0686853 4.37170521,7.0686853 C4.99085958,7.0686853 5.46433056,7.54215628 5.46433056,8.16131065 C5.46433056,8.78046502 4.99085958,9.253936 4.37170521,9.253936 Z" id="形状" fill="#2F3CF4" fill-rule="nonzero"></path>
                </g>
            </g>
        </g>
    </g>
</svg>