<?xml version="1.0" encoding="UTF-8"?>
<svg width="16px" height="15px" viewBox="0 0 16 15" version="1.1" xmlns="http://www.w3.org/2000/svg" xmlns:xlink="http://www.w3.org/1999/xlink">
    <title>通用图标/二维码</title>
    <g id="2.8.0评审" stroke="none" stroke-width="1" fill="none" fill-rule="evenodd" fill-opacity="0.701960784">
        <g id="个人中心" transform="translate(-123.000000, -333.000000)" fill="#000000">
            <g id="编组" transform="translate(119.000000, 329.000000)">
                <g id="common_qrcode" transform="translate(4.500000, 4.000000)">
                    <path d="M6,8 C6.5522847,8 7,8.4477153 7,9 L7,14 C7,14.5522847 6.5522847,15 6,15 L1,15 C0.44771525,15 0,14.5522847 0,14 L0,9 C0,8.4477153 0.44771525,8 1,8 L6,8 Z M12,8 L12,11 L14,11 L14,8 C14.5522847,8 15,8.4477153 15,9 L15,12 L11,12 L11,11 L9,11 L9,15 C8.4477153,15 8,14.5522847 8,14 L8,9 C8,8.4477153 8.4477153,8 9,8 L12,8 Z M12,13 L12,15 L10,15 L10,13 L12,13 Z M15,13 L15,14 C15,14.5522847 14.5522847,15 14,15 L13,15 L13,13 L15,13 Z M6,9 L1,9 L1,14 L6,14 L6,9 Z M3.61232719,10.5705786 C4.16461194,10.5705786 4.61232719,11.0182939 4.61232719,11.5705786 C4.61232719,12.1228634 4.16461194,12.5705786 3.61232719,12.5705786 C3.06004244,12.5705786 2.61232719,12.1228634 2.61232719,11.5705786 C2.61232719,11.0182939 3.06004244,10.5705786 3.61232719,10.5705786 Z M6,0 C6.5522847,0 7,0.44771525 7,1 L7,6 C7,6.5522847 6.5522847,7 6,7 L1,7 C0.44771525,7 0,6.5522847 0,6 L0,1 C0,0.44771525 0.44771525,0 1,0 L6,0 Z M14,0 C14.5522847,0 15,0.44771525 15,1 L15,6 C15,6.5522847 14.5522847,7 14,7 L9,7 C8.4477153,7 8,6.5522847 8,6 L8,1 C8,0.44771525 8.4477153,0 9,0 L14,0 Z M6,1 L1,1 L1,6 L6,6 L6,1 Z M14,1 L9,1 L9,6 L14,6 L14,1 Z M3.61232719,2.57057864 C4.16461194,2.57057864 4.61232719,3.01829389 4.61232719,3.57057864 C4.61232719,4.12286339 4.16461194,4.57057864 3.61232719,4.57057864 C3.06004244,4.57057864 2.61232719,4.12286339 2.61232719,3.57057864 C2.61232719,3.01829389 3.06004244,2.57057864 3.61232719,2.57057864 Z M11.6123272,2.57057864 C12.1646119,2.57057864 12.6123272,3.01829389 12.6123272,3.57057864 C12.6123272,4.12286339 12.1646119,4.57057864 11.6123272,4.57057864 C11.0600424,4.57057864 10.6123272,4.12286339 10.6123272,3.57057864 C10.6123272,3.01829389 11.0600424,2.57057864 11.6123272,2.57057864 Z"></path>
                </g>
            </g>
        </g>
    </g>
</svg>