<?xml version="1.0" encoding="UTF-8"?>
<svg width="11px" height="9px" viewBox="0 0 11 9" version="1.1" xmlns="http://www.w3.org/2000/svg" xmlns:xlink="http://www.w3.org/1999/xlink">
    <title>通用图标/笔 (编辑 修改 调整)备份</title>
    <g id="2.8.0评审" stroke="none" stroke-width="1" fill="none" fill-rule="evenodd" fill-opacity="0.701960784">
        <g id="个人中心" transform="translate(-197.000000, -94.000000)" fill="#000000">
            <g id="编组" transform="translate(195.000000, 91.000000)">
                <g id="编组" transform="translate(2.666667, 3.333333)">
                    <path d="M3.982,6.85548013 L2,7.33348013 L2.47666667,5.34881347 L7.558,0.260146781 C7.92533333,-0.108519886 8.632,-0.0785198857 9.016,0.306813448 C9.19866667,0.488813448 9.31333333,0.747480114 9.33133333,1.01348011 C9.35,1.30348011 9.25266667,1.57748011 9.06266667,1.76681345 L3.982,6.85548013 Z M3.622,6.2121468 L8.56066667,1.26481345 C8.606,1.21948011 8.62866667,1.14548011 8.62333333,1.06014678 C8.61666667,0.964146781 8.576,0.870813448 8.51466667,0.808813448 C8.448,0.740813448 8.34133333,0.699480114 8.23866667,0.699480114 C8.19466667,0.699480114 8.114,0.707480114 8.05933333,0.762146781 L3.11933333,5.70881347 L2.96066667,6.3701468 L3.622,6.2121468 Z M10,8.33333333 C10,8.51733333 9.84133333,8.66666667 9.646,8.66666667 L0.354,8.66666667 C0.158666667,8.66666667 0,8.51733333 0,8.33333333 C0,8.14933333 0.158666667,8 0.354,8 L9.646,8 C9.84133333,8 10,8.14933333 10,8.33333333 Z" id="color"></path>
                </g>
            </g>
        </g>
    </g>
</svg>