<?xml version="1.0" encoding="UTF-8"?>
<svg width="16px" height="14px" viewBox="0 0 16 14" version="1.1" xmlns="http://www.w3.org/2000/svg" xmlns:xlink="http://www.w3.org/1999/xlink">
    <title>通用图标/调查问卷</title>
    <g id="2.8.0评审" stroke="none" stroke-width="1" fill="none" fill-rule="evenodd" fill-opacity="0.701960784">
        <g id="个人中心" transform="translate(-123.000000, -374.000000)" fill="#000000">
            <g id="编组" transform="translate(119.000000, 369.000000)">
                <g id="形状结合" transform="translate(4.000000, 5.000000)">
                    <path d="M13.7011663,6 C13.8291274,6 13.9570886,6.0488155 14.0547196,6.1464466 L15.4689332,7.5606602 C15.6641954,7.7559223 15.6641954,8.0725048 15.4689332,8.267767 C12.5381229,11.1359755 11.026826,12.5853771 10.9350423,12.6159716 L14.5,12.6159716 C14.7761424,12.6159716 15,12.8398292 15,13.1159716 C15,13.392114 14.7761424,13.6159716 14.5,13.6159716 L8.5,13.6159716 C8.2238576,13.6159716 8,13.392114 8,13.1159716 C8,13.0436528 8.0153535,12.97492 8.0429788,12.912855 L8.9097979,10.5693025 C8.9403924,10.4775189 10.4196641,9.0032336 13.3476129,6.1464466 C13.4452439,6.0488155 13.5732051,6 13.7011663,6 Z M13.7011663,7.2071068 C11.1640175,9.6742033 9.8779779,10.9157783 9.8430473,10.9318318 L9.2919882,12.3233916 L10.572513,11.6827222 C10.5885665,11.6477916 11.8671532,10.3916221 14.408273,7.9142136 L13.7011663,7.2071068 Z M14.021,0 C14.573,0 15,0.448 15,1 L15,5.678 L14.7618264,5.4393398 C14.5501979,5.2277113 14.2847323,5.0878329 14.0003195,5.0300567 L14,4 L1,4 L1,11 L7.624,11 L7.291,12 L1.042,12 C0.489,12 0,11.552 0,11 L0,1 C0,0.448 0.489,0 1.042,0 L14.021,0 Z M7,8 L7,9 L2,9 L2,8 L7,8 Z M14,1 L1,1 L1,3 L14,3 L14,1 Z"></path>
                </g>
            </g>
        </g>
    </g>
</svg>