<?xml version="1.0" encoding="utf-8"?>
<!-- Generator: Adobe Illustrator 18.0.0, SVG Export Plug-In . SVG Version: 6.00 Build 0)  -->
<!DOCTYPE svg PUBLIC "-//W3C//DTD SVG 1.1//EN" "http://www.w3.org/Graphics/SVG/1.1/DTD/svg11.dtd">
<svg version="1.1" id="图层_1" xmlns="http://www.w3.org/2000/svg" xmlns:xlink="http://www.w3.org/1999/xlink" x="0px" y="0px"
	 viewBox="0 217 1024 333" enable-background="new 0 217 1024 333" xml:space="preserve">
<title>logo</title>
<path fill="#FFFFFF" d="M427.6,402.3c0,23.6,0,47.1,0,70.7c0,23.6,0,47.3,0,71.3c-20,0-39.2,0-59.5,0c0-2.6,0-5,0-7.5
	c0-62,0.1-124-0.1-186c0-6.3,1.8-8.1,8.1-8c26.4,0.3,52.9,0.3,79.3,0c5.3-0.1,8.1,1.6,10.6,6.3c20.6,38.8,41.5,77.4,62.3,116.1
	c1.2,2.2,2.4,4.3,4.1,7.4c1.6-2.7,2.8-4.8,4-6.9c20.8-38.7,41.8-77.3,62.4-116c2.8-5.2,5.9-6.9,11.7-6.8c26.4,0.3,52.9,0.2,79.3,0.1
	c4.6,0,7,0.7,7,6.2c-0.2,63.4-0.1,126.7-0.1,190.1c0,1.6-0.3,3.1-0.5,5c-19.5,0-38.8,0-58.9,0c0-47.3,0-94.5,0-141.7
	c-0.5-0.1-1-0.3-1.6-0.4c-1.2,2-2.6,4-3.7,6.1c-24.3,43.5-48.7,87-72.9,130.6c-2.4,4.4-4.9,6.1-10,6c-11.2-0.4-22.3-0.3-33.5,0
	c-4.4,0.1-6.9-1.1-9.1-5.1c-24.3-43.8-48.7-87.5-73.1-131.2c-1.3-2.3-2.7-4.4-4-6.6C428.7,402,428.1,402.1,427.6,402.3z"/>
<path fill="#FFFFFF" d="M179,340.5c25.5,0.7,51.1,0.4,76.5,2.4c22.2,1.8,43.1,9,53.1,31.5c4.3,9.7,7.2,20.9,7.5,31.5
	c0.8,27.3,1,54.7-0.8,81.9c-2.2,34-20.1,51.9-53.9,56.6c-11,1.5-22.2,2.3-33.3,2.4c-34,0.3-67.9,0.4-101.9,0
	c-11.3-0.1-22.8-1.2-33.9-3.4c-32.8-6.4-48.6-22.3-50.7-55.8c-1.8-30.2-1.5-60.7,0.8-90.8c2.4-31.2,19.5-48.1,50.7-52.6
	c17.5-2.5,35.4-2.4,53.1-3c10.9-0.4,21.9-0.1,32.8-0.1C179,340.9,179,340.7,179,340.5z M178.8,392.7
	C178.8,392.7,178.8,392.8,178.8,392.7c-14.8,0-29.6-0.5-44.4,0.2c-17.5,0.7-27.5,9.2-29.2,25.6c-1.4,13.7-2,27.8-1,41.5
	c2.3,29.9,9.2,35.7,39.5,35.7c19.6,0,39.2,0.1,58.8,0c9.1-0.1,18.2-0.1,27.2-1.2c13.6-1.7,20.4-7.2,21.6-20.6
	c1.6-18.3,2.2-36.9,0.7-55.1c-1.5-17.7-11.4-25.3-29.4-26C207.9,392.3,193.3,392.7,178.8,392.7z"/>
<path fill="#FFFFFF" d="M749.9,479.7c8.5,0,16.8,0,25.2,0c10,0,20.1,0.2,30.1-0.1c3.9-0.1,5.6,1.2,6.4,5.1
	c2.9,14.1,4.3,16.2,18.7,16.7c26.2,0.9,52.4,0.6,78.6,0.7c5.4,0,10.9-0.2,16.3-0.9c10.5-1.4,16.1-7.2,16.2-16.1
	c0.1-9.3-5.4-15.7-16.1-17c-11.3-1.4-22.6-2.2-34-2.5c-29.6-0.8-59.2-0.7-88.8-2.1c-10.5-0.5-21-3.5-31.1-6.9
	c-10.3-3.4-16.9-11.6-19.2-22.3c-3.9-17.8-4.1-35.7-0.9-53.6c3.5-19.8,15.6-31.5,35-35.3c10.7-2.1,21.6-4,32.4-4.1
	c37.1-0.5,74.3-0.4,111.4,0c9.5,0.1,19.1,1.7,28.3,3.8c22,5,32.6,17.3,35.2,39.6c0.6,5.4,0.7,10.9,1.1,16.3c0.3,3.4-1,5-4.6,5
	c-17.5-0.1-35.1-0.1-52.6,0c-3.4,0-4.6-1.3-5-4.7c-1.2-9.6-4.2-12.6-13.6-14.2c-4.5-0.8-9-1.2-13.6-1.2c-23.2-0.1-46.5-0.1-69.7,0
	c-4.5,0-9.1,0.5-13.5,1.8c-8,2.3-11.8,8.1-11.2,15.8c0.5,7.9,4.8,13.4,12.9,14.4c8.5,1.1,17.2,1.1,25.9,1.2
	c29.6,0.5,59.2,0.5,88.8,1.5c10.6,0.4,21.2,2.6,31.5,5.2c17.5,4.4,28.3,15.5,31.2,33.8c2.7,17.5,2.9,35-0.9,52.2
	c-4.6,20.5-20.3,28.3-38.8,31c-15.5,2.3-31.2,3.5-46.9,3.8c-30.5,0.6-61.1,0.5-91.6,0c-12.2-0.2-24.6-1.4-36.6-3.7
	c-23-4.3-32.9-14.9-36.2-38.2C749,497,749.9,488.7,749.9,479.7z"/>
<path fill="#FFFFFF" d="M12.2,395.9c1.9-5.2,3.7-10.5,5.8-15.6c3.1-7.8,7.3-15.2,9.6-23.2c3.7-13,11.9-21.7,23.2-28.1
	c16.9-9.6,35.4-14.4,54.2-17.7c48.8-8.5,97.9-8.3,147.2-6.1c7.5,0.3,15,1.3,22.5,1.3c3,0,6.1-1.4,8.9-2.8
	c36.4-17.7,72.8-35.6,109.2-53.3c33.1-16.1,68.3-25.2,104.9-27.9c29.3-2.2,58.7-3.3,88-3.1c62.4,0.3,122.2,14.5,180.3,36.5
	c36.6,13.8,72.5,29.8,110.9,37.9c20.6,4.4,41.8,5.9,62.7,9.3c9.6,1.6,19.1,4.1,28.4,7c4.1,1.3,7.6,4.5,11,7.4
	c-23.5-7.9-47.6-8.5-71.6-7.2c-48.7,2.6-97.2,6.7-145.9,9.4c-19.2,1.1-38.6,0.2-56.4,0.2c47.7-3.7,97-6.5,146.4-17.1
	c-1.5-1.3-2.1-2.3-3-2.6c-42.2-17-83.8-35.5-126.7-50.4c-59.3-20.6-121-26.8-183.8-24.1c-45.1,1.9-89.8,6.2-131.2,25.4
	c-36.9,17.1-72.8,36.5-109.1,54.9c-0.7,0.4-1.3,1.1-2.7,2.3c17.6,2.9,34.3,5.7,51.1,8.5c0,0.3-0.1,0.7-0.1,1
	c-11-1.1-22-2.3-33.1-3.3c-63.2-5.8-126.4-7.5-189.4,3.1c-22.7,3.8-45,9.2-65.9,19.2c-11.7,5.6-20.5,13.7-25,26.6
	c-2.3,6.7-6.9,12.7-10.6,18.9c-2.7,4.7-5.6,9.3-8.4,13.9C13.2,396,12.7,395.9,12.2,395.9z"/>
</svg>
