<svg id="图层_1" data-name="图层 1" xmlns="http://www.w3.org/2000/svg" viewBox="0 0 706.98 245.74"><defs><style>.cls-1{fill:#fff;}</style></defs><title>hdc</title><path class="cls-1" d="M1082.24,771.93V624.68c1.87-.09,3.63-.27,5.38-.27,44.48,0,89-.13,133.45.11a129.32,129.32,0,0,1,24.25,2.57c21.22,4.18,32.52,16.58,33.39,38.11.86,21.27,1,42.63.11,63.89-1.08,25.09-14.41,38.54-39.31,41.64a153.1,153.1,0,0,1-18.42,1.15q-66.22.14-132.44,0Zm45-111.11V734.4h5.67c13.49,0,27,0,40.47,0s27,.16,40.45-.34c12.47-.46,19.51-7,20.13-19.08a344,344,0,0,0,0-34.44c-.58-11.47-5.85-16.84-17-18.75a66.39,66.39,0,0,0-10.91-.92c-24.31-.08-48.62,0-72.93,0Z" transform="translate(-811.29 -527.95)"/><path class="cls-1" d="M1504.41,677.91h-44.56c-.35-.48-.68-.72-.71-1-1.39-11.88-5.05-15.79-17.18-16-20-.36-40-.39-60,.06-12.85.29-20.39,6.17-21.47,18.54a237,237,0,0,0,.47,40.74c.83,9.62,5.82,13.66,15.43,14.79a192.46,192.46,0,0,0,22.41,1c15.15,0,30.33.29,45.43-.7,12-.78,14.91-4.73,15.87-16.87.07-1,.16-1.91.26-3.11H1505c0,11.78,1.46,23.38-3,34.6-5.49,13.9-17,19.43-30.58,21.76a134,134,0,0,1-21.35,1.82c-24.82.21-49.65.27-74.46,0a131.73,131.73,0,0,1-24.28-2.39c-24.91-5-36.18-16.63-37.67-41.9a498,498,0,0,1,.53-64.87c1.67-23.11,13.2-34.58,36-38.91a127.55,127.55,0,0,1,22.31-2.24c23.82-.25,47.65-.49,71.46.2,11,.32,22.15,2.23,33,4.42,14.44,2.91,22.85,12.47,25.25,26.87C1503.47,662.13,1503.68,669.77,1504.41,677.91Z" transform="translate(-811.29 -527.95)"/><path class="cls-1" d="M899.65,716.17v55.37h-45c-.08-1.74-.24-3.37-.24-5,0-45.49.07-91-.12-136.48,0-4.75,1.48-5.88,6-5.76,11,.29,22,.33,33,0,4.89-.15,6.67.93,6.51,6.26-.42,13.48-.14,27-.14,40.49v5.69H994V624.4h7c10.67,0,21.35.34,32-.14,5.36-.24,6.26,1.68,6.23,6.5-.18,36.66-.1,73.32-.1,110v30.81H994.37V716.17Z" transform="translate(-811.29 -527.95)"/><path class="cls-1" d="M1517.81,600.2c-16.91-6.27-34.6-6.57-52.15-5.7-29.77,1.49-59.47,4.22-89.23,6-19,1.12-38,1.43-56.94,2.08a5.92,5.92,0,0,1-2.84-.63c36-3.14,72.09-5.26,108.3-14.08-.63-.2-1.27-.37-1.88-.62-31-12.43-61.63-26.06-93.16-37-43.22-15.05-88.17-19.53-133.89-17.59-32.81,1.39-65.36,4.33-95.47,18.29-27.46,12.72-54.13,27.15-81.14,40.83-.26.14-.43.46-1.16,1.26l36.9,6.16-.09.8c-8.39-.86-16.76-1.84-25.16-2.56-49.6-4.24-99.18-5.81-148.26,4.66-12.75,2.72-25.18,7.36-37.4,12.05-8.64,3.31-14.78,9.7-18,19-1.69,4.93-5.07,9.28-7.73,13.86a80.17,80.17,0,0,1-7.27,10.91c1.28-3.9,2.37-7.87,3.88-11.67,2.37-6,5.62-11.73,7.41-17.89,2.72-9.35,8.7-15.5,16.8-20.11,12.34-7,25.86-10.52,39.67-12.93,35.66-6.22,71.62-6.06,107.62-4.46,5.49.24,11,.87,16.46.92a14.56,14.56,0,0,0,6.08-1.8c26.79-13,53.53-26.17,80.31-39.2a210.1,210.1,0,0,1,76.73-20.43c21.4-1.61,42.92-2.41,64.38-2.3,45.64.25,89.4,10.63,131.88,26.74,26.74,10.14,53,21.76,81.11,27.73,15.08,3.21,30.58,4.37,45.85,6.74a126.18,126.18,0,0,1,18.43,4.23c3.67,1.15,6.92,3.63,10.36,5.52Z" transform="translate(-811.29 -527.95)"/></svg>