<?xml version="1.0" encoding="UTF-8"?>
<svg width="327px" height="187px" viewBox="0 0 327 187" version="1.1" xmlns="http://www.w3.org/2000/svg" xmlns:xlink="http://www.w3.org/1999/xlink">
    <title>欢迎页</title>
    <defs>
        <rect id="path-1" x="122" y="105" width="86.0465116" height="50"></rect>
        <mask id="mask-2" maskContentUnits="userSpaceOnUse" maskUnits="objectBoundingBox" x="0" y="0" width="86.0465116" height="50" fill="white">
            <use xlink:href="#path-1"></use>
        </mask>
        <filter color-interpolation-filters="auto" id="filter-3">
            <feColorMatrix in="SourceGraphic" type="matrix" values="0 0 0 0 0.486275 0 0 0 0 0.556863 0 0 0 0 0.705882 0 0 0 1.000000 0"></feColorMatrix>
        </filter>
        <filter color-interpolation-filters="auto" id="filter-4">
            <feColorMatrix in="SourceGraphic" type="matrix" values="0 0 0 0 0.486275 0 0 0 0 0.556863 0 0 0 0 0.705882 0 0 0 1.000000 0"></feColorMatrix>
        </filter>
    </defs>
    <g id="首页" stroke="none" stroke-width="1" fill="none" fill-rule="evenodd">
        <g id="画板" transform="translate(-871.000000, -298.000000)">
            <g id="欢迎页" transform="translate(871.000000, 298.000000)">
                <path d="M167.079943,182.5 C220.146644,182.5 283.832932,182.793971 283.908536,182.623388 C283.98414,182.452806 295,148.730316 295,130 C295,58.2029825 236.797017,0 165,0 C93.2029825,0 35,58.2029825 35,130 C35,148.796542 45.8576367,182.09819 46.167215,182.793971 C46.4767934,183.489752 114.079467,182.5 167.079943,182.5 Z" id="椭圆形" fill="#F3F7FE"></path>
                <path d="M165.372977,182.5 C207.95195,182.5 261.156725,184 261.576226,183.123198 C268.258246,169.157057 272,153.515495 272,137 C272,77.9055318 224.094468,30 165,30 C105.905532,30 58,77.9055318 58,137 C58,153.587903 61.774635,169.294192 68.5118297,183.306793 C68.8451205,184 122.866412,182.5 165.372977,182.5 Z" id="椭圆形" fill="#E7EFFC"></path>
                <rect id="矩形" stroke="#7C8EB4" stroke-width="2.5" x="88.25" y="83.25" width="153.5" height="92.5" rx="6"></rect>
                <rect id="矩形" stroke="#7C8EB4" stroke-width="2" x="127" y="13" width="76" height="42" rx="6"></rect>
                <rect id="矩形" stroke="#7C8EB4" x="91.5" y="87.5" width="147" height="85" rx="6"></rect>
                <use id="矩形" stroke="#7C8EB4" mask="url(#mask-2)" stroke-width="2" stroke-dasharray="4" xlink:href="#path-1"></use>
                <path d="M74.0057491,176.079712 C73.8899879,179.582486 75.5224021,181.333872 78.9029917,181.333872 C82.2835812,181.333872 139.807323,181.333872 251.474218,181.333872 C254.161656,180.777698 255.505375,179.026312 255.505375,176.079712 C255.553555,175.973429 195.053679,175.973429 74.0057491,176.079712 Z" id="路径-2" stroke="#7C8EB4" stroke-width="2"></path>
                <rect id="矩形" fill="#7C8EB4" x="-5.68434189e-14" y="181" width="325" height="3" rx="1.5"></rect>
                <g filter="url(#filter-3)" id="wxb报表">
                    <g transform="translate(150.000000, 113.000000)">
                        <rect id="矩形" fill="#000000" fill-rule="nonzero" opacity="0" x="0" y="0" width="30" height="30"></rect>
                        <path d="M27.3605961,26.7214337 L3.27871726,26.7214337 L3.27871726,2.63932843 C3.27871726,2.28469622 2.99215871,2 2.63937372,2 C2.28532037,2 2,2.28472641 2,2.63932843 L2,27.3606414 C2,27.7127673 2.28535056,28 2.63937372,28 L27.3605961,28 C27.7139851,28 28,27.7127672 28,27.3606414 C28,27.0060696 27.7140153,26.7214337 27.3605961,26.7214337 M5.62204067,21.0723517 C5.80996917,21.0723517 5.99668976,20.9899444 6.12343505,20.8301425 L11.0054997,14.6790977 L17.0507704,20.7252084 C17.1831931,20.8575915 17.3680111,20.9300338 17.5502924,20.9125196 C17.7351105,20.897542 17.9049498,20.8050791 18.014844,20.6577787 L25.6347823,10.4810062 C25.8470815,10.1987861 25.7896731,9.79922093 25.5061647,9.58693682 C25.2239548,9.37465272 24.823093,9.4321174 24.6108844,9.71427708 L17.4353851,19.2992209 L11.4038551,13.2680577 C11.2739691,13.1407175 11.1041297,13.0682751 10.9143289,13.0832528 C10.7320174,13.093248 10.5621781,13.1806981 10.4497773,13.3230161 L5.12194483,20.0359343 C4.90212614,20.3106353 4.94833066,20.7152132 5.22431952,20.9349257 C5.34357546,21.0273584 5.48279297,21.0723517 5.62204067,21.0723517" id="形状" fill="#000000" fill-rule="nonzero"></path>
                    </g>
                </g>
                <g id="编组-2" transform="translate(248.664217, 63.616688)" stroke="#7C8EB4">
                    <path d="M29.3367713,117.584462 L58.5043248,117.584462 L58.5043248,111.836644 C58.4642669,110.858345 57.095948,110.369195 54.3993681,110.369195 C51.7027882,110.369195 44.1998481,110.369195 31.8905477,110.369195 C30.1880301,110.468044 29.3367713,111.251478 29.3367713,112.719496 C29.3367713,114.187514 29.3367713,115.80917 29.3367713,117.584462 Z" id="路径-3" stroke-width="2"></path>
                    <path d="M31.3722856,110.369195 C34.0948803,104.951893 38.2776345,102.243242 43.920548,102.243242 C49.5634616,102.243242 53.7473624,104.951893 56.4722503,110.369195 L31.3722856,110.369195 Z" id="路径-4" stroke-width="2"></path>
                    <polygon id="路径-5" points="43.1950594 102.243242 66.3928629 52.7917272 69.3532908 54.0892938 47.0817192 102.243242"></polygon>
                    <polygon id="路径-5" transform="translate(49.274175, 34.517485) rotate(-70.000000) translate(-49.274175, -34.517485) " points="36.1950594 59.2432418 59.3928629 9.79172724 62.3532908 11.0892938 40.0817192 59.2432418"></polygon>
                    <path d="M17.7478598,7.53741585 C22.3527859,2.08832894 25.7747551,-0.406242587 28.0137673,0.0537012854 C31.3722856,0.743617094 35.4783035,4.96543126 35.4783035,6.59966756 C35.4783035,8.23390386 32.7446776,13.009813 28.0137673,17.382912 C27.8564867,17.5059609 24.4345175,14.2241288 17.7478598,7.53741585 Z" id="路径-6" stroke-width="2"></path>
                    <path d="M-5.68434189e-14,14.9609712 L20.568642,35.3288976 C28.7925002,26.8282302 31.2742086,20.8473467 28.0137673,17.3862471 C24.7533259,13.9251476 20.6315151,10.5102165 15.6483347,7.14145374 C13.549666,5.94594035 11.3041073,5.94594035 8.91165868,7.14145374 C6.51921007,8.33696713 3.54865718,10.9434729 -5.68434189e-14,14.9609712 Z" id="路径-7" stroke-width="2"></path>
                    <circle id="椭圆形" fill="#FFFFFF" cx="67.3357832" cy="52.3833123" r="3.5"></circle>
                </g>
                <g filter="url(#filter-4)" id="花盆">
                    <g transform="translate(5.000000, 128.000000)">
                        <rect id="矩形" fill="#000000" fill-rule="nonzero" opacity="0" x="0" y="0" width="59" height="59"></rect>
                        <path d="M29,23 C28.65,23 28.3,22.8927694 28.0025,22.6842654 C24.0183333,19.8486112 22,16.5899918 22,12.997766 C22,9.40554025 24.0183333,6.14692084 28.0025,3.31722392 C28.6033333,2.89425869 29.4025,2.89425869 30.0033333,3.31722392 C33.9816667,6.14692084 36,9.40554025 36,12.997766 C36,16.5899918 33.9816667,19.8486112 29.9975,22.6783081 C29.7,22.8927694 29.35,23 29,23 Z M29,5.51545163 C27.4658333,6.65328766 26.2991667,7.844739 25.5233333,9.07193387 C24.7241667,10.3408295 24.3333333,11.6216397 24.3333333,12.997766 C24.3333333,14.3738923 24.7241667,15.6547025 25.5233333,16.9235982 C26.2991667,18.1507931 27.4658333,19.3422444 29,20.4800804 C30.5341667,19.3422444 31.7008333,18.1507931 32.4766667,16.9235982 C33.2758333,15.6606598 33.6666667,14.3738923 33.6666667,12.997766 C33.6666667,11.6216397 33.2758333,10.3348723 32.4766667,9.07193387 C31.7008333,7.844739 30.5341667,6.65328766 29,5.51545163 Z" id="形状" fill="#857069" fill-rule="nonzero"></path>
                        <path d="M38,29 C34.4069715,29 31.147624,26.9816667 28.3172948,22.9975 C27.8942351,22.4025 27.8942351,21.5975 28.3172948,20.9966667 C31.147624,17.0183333 34.4069715,15 38,15 C41.5930285,15 44.852376,17.0183333 47.6827052,21.0025 C48.1057649,21.6033333 48.1057649,22.4025 47.6827052,23.0033333 C44.852376,26.9816667 41.5930285,29 38,29 Z M30.5160137,22 C31.654104,23.5341667 32.8458215,24.7008333 34.0732906,25.4766667 C35.3365112,26.2758333 36.6235662,26.6666667 38,26.6666667 C39.3764338,26.6666667 40.6634888,26.2758333 41.9267094,25.4766667 C43.1541785,24.7008333 44.345896,23.5341667 45.4839863,22 C44.345896,20.4658333 43.1541785,19.2991667 41.9267094,18.5233333 C40.6634888,17.7241667 39.3764338,17.3333333 38,17.3333333 C36.6235662,17.3333333 35.3365112,17.7241667 34.0732906,18.5233333 C32.8458215,19.2991667 31.654104,20.4658333 30.5160137,22 Z" id="形状" fill="#857069" fill-rule="nonzero"></path>
                        <path d="M21,29 C17.4069715,29 14.147624,26.9816667 11.3172948,22.9975 C10.8942351,22.4025 10.8942351,21.5975 11.3172948,20.9966667 C14.147624,17.0183333 17.4069715,15 21,15 C24.5930285,15 27.852376,17.0183333 30.6827052,21.0025 C31.1057649,21.6033333 31.1057649,22.4025 30.6827052,23.0033333 C27.852376,26.9816667 24.5930285,29 21,29 Z M13.5160137,22 C14.654104,23.5341667 15.8517801,24.7008333 17.0732906,25.4766667 C18.3365112,26.2758333 19.6235662,26.6666667 21,26.6666667 C22.3764338,26.6666667 23.6575302,26.2758333 24.9267094,25.4766667 C26.1541785,24.7008333 27.345896,23.5341667 28.4839863,22 C27.345896,20.4658333 26.1541785,19.2991667 24.9267094,18.5233333 C23.6634888,17.7241667 22.3764338,17.3333333 21,17.3333333 C19.6235662,17.3333333 18.3365112,17.7241667 17.0732906,18.5233333 C15.8458215,19.2991667 14.654104,20.4658333 13.5160137,22 Z" id="形状" fill="#857069" fill-rule="nonzero"></path>
                        <polygon id="路径" fill="#857069" fill-rule="nonzero" points="28 23 30 23 30 34 28 34"></polygon>
                        <path d="M46.9473684,39 L11.0526316,39 C8.81789474,39 7,37.2057143 7,35 C7,32.7942857 8.81789474,31 11.0526316,31 L46.9473684,31 C49.1821053,31 51,32.7942857 51,35 C51,37.2057143 49.1821053,39 46.9473684,39 Z M11.0526316,33.2857143 C10.0973684,33.2857143 9.31578947,34.0571429 9.31578947,35 C9.31578947,35.9428571 10.0973684,36.7142857 11.0526316,36.7142857 L46.9473684,36.7142857 C47.9026316,36.7142857 48.6842105,35.9428571 48.6842105,35 C48.6842105,34.0571429 47.9026316,33.2857143 46.9473684,33.2857143 L11.0526316,33.2857143 Z" id="形状" fill="#857069" fill-rule="nonzero"></path>
                        <path d="M37.1958451,56 L21.7983003,56 C20.7327668,56 19.684797,55.6259375 18.8534466,54.943125 C18.0220963,54.2603125 17.4424929,53.304375 17.2200189,52.2475 L14,37 L45,37 L41.7799811,52.2475 C41.5575071,53.304375 40.9779037,54.26625 40.1465534,54.943125 C39.3093484,55.6259375 38.2613787,56 37.1958451,56 L37.1958451,56 Z M16.8921624,39.375 L19.5091596,51.74875 C19.7374882,52.8353125 20.7034939,53.625 21.7983003,53.625 L37.1958451,53.625 C38.2906516,53.625 39.2566572,52.8353125 39.4849858,51.74875 L42.101983,39.375 L16.8921624,39.375 Z" id="形状" fill="#857069" fill-rule="nonzero"></path>
                    </g>
                </g>
                <rect id="矩形" stroke="#7C8EB4" fill="#D8D8D8" x="134.5" y="21.5" width="10" height="1" rx="0.5"></rect>
                <rect id="矩形" stroke="#7C8EB4" fill="#D8D8D8" x="152.5" y="21.5" width="44" height="1" rx="0.5"></rect>
                <rect id="矩形" stroke="#7C8EB4" fill="#D8D8D8" x="134.5" y="27.5" width="10" height="1" rx="0.5"></rect>
                <rect id="矩形" stroke="#7C8EB4" fill="#D8D8D8" x="152.5" y="27.5" width="44" height="1" rx="0.5"></rect>
                <rect id="矩形" stroke="#7C8EB4" fill="#D8D8D8" x="134.5" y="33.5" width="10" height="1" rx="0.5"></rect>
                <rect id="矩形" stroke="#7C8EB4" fill="#D8D8D8" x="152.5" y="33.5" width="44" height="1" rx="0.5"></rect>
                <rect id="矩形" stroke="#7C8EB4" fill="#D8D8D8" x="134.5" y="39.5" width="10" height="1" rx="0.5"></rect>
                <rect id="矩形" stroke="#7C8EB4" fill="#D8D8D8" x="152.5" y="39.5" width="44" height="1" rx="0.5"></rect>
                <rect id="矩形" stroke="#7C8EB4" fill="#D8D8D8" x="134.5" y="45.5" width="10" height="1" rx="0.5"></rect>
                <rect id="矩形" stroke="#7C8EB4" fill="#D8D8D8" x="152.5" y="45.5" width="44" height="1" rx="0.5"></rect>
                <line x1="165.5" y1="55.5" x2="165.5" y2="104.5" id="直线" stroke="#7C8EB4" stroke-linecap="square" stroke-dasharray="4"></line>
            </g>
        </g>
    </g>
</svg>