<?xml version="1.0" encoding="utf-8"?>
<!-- Svg Vector Icons : http://www.onlinewebfonts.com/icon -->
<!DOCTYPE svg PUBLIC "-//W3C//DTD SVG 1.1//EN" "http://www.w3.org/Graphics/SVG/1.1/DTD/svg11.dtd">
<svg version="1.1" xmlns="http://www.w3.org/2000/svg" xmlns:xlink="http://www.w3.org/1999/xlink" x="0px" y="0px" viewBox="0 0 1000 1000" enable-background="new 0 0 1000 1000" xml:space="preserve">
<metadata> Svg Vector Icons : http://www.onlinewebfonts.com/icon </metadata>
<g><path d="M445.6,445.6v-54.4h-54.4v-54.4h-54.4v54.4v54.4h54.4H445.6z"/><path d="M717.8,500h54.4v54.4h-54.4V500L717.8,500z"/><path d="M445.6,500h-54.4h-54.4v54.4h54.4h54.4v54.4H500v-54.4V500v-54.4h-54.4V500z"/><path d="M336.7,282.2v-70.8v-38.1V157v-38.1V64.4V10h-27.2h-27.2h-54.4h-54.4h-54.4H64.4H10v54.4v54.4V157v16.3V206v5.4v70.8v5.4v49h54.4h54.4h54.4h54.4h108.9v-43.6L336.7,282.2L336.7,282.2z M173.3,282.2h-54.4H64.4v-70.8V206v-32.7V157v-38.1V64.4h54.4h54.4h54.4h54.4v54.4V157v16.3v38.1v70.8h-54.4L173.3,282.2L173.3,282.2z"/><path d="M118.9,118.9v54.4v54.4h54.4h54.4v-54.4v-54.4h-54.4H118.9z"/><path d="M282.2,663.3h-54.4h-54.4h-54.4H64.4H10v54.4v54.4v38.1v16.3v32.7v5.4v70.8v5.4v49h54.4h54.4h54.4h54.4h108.9v-43.6v-10.9v-70.8v-38.1v-16.3v-38.1v-54.4v-54.4h-27.2H282.2z M282.2,810.3v16.3v38.1v70.8h-54.4h-54.4h-54.4H64.4v-70.8v-5.4v-32.7v-16.3v-38.1v-54.4h54.4h54.4h54.4h54.4v54.4L282.2,810.3L282.2,810.3z"/><path d="M118.9,772.2v54.4v54.4h54.4h54.4v-54.4v-54.4h-54.4H118.9z"/><path d="M962.8,10h-27.2h-54.4h-54.4h-54.4h-54.4h-54.4v54.4v54.4V157v16.3V206v5.4v70.8v5.4v49h54.4h54.4h54.4h54.4H990v-43.6v-10.9v-70.8v-38.1V157v-38.1V64.4V10H962.8z M935.6,157v16.3v38.1v70.8h-54.4h-54.4h-54.4h-54.4v-70.8V206v-32.7V157v-38.1V64.4h54.4h54.4h54.4h54.4v54.4V157z"/><path d="M772.2,118.9v54.4v54.4h54.4h54.4v-54.4v-54.4h-54.4H772.2z"/><path d="M391.1,282.2h54.4v54.4h-54.4V282.2z"/><path d="M282.2,445.6h-54.4V500h54.4h54.4v-54.4H282.2z"/><path d="M118.9,445.6h54.4V500h-54.4V445.6L118.9,445.6z"/><path d="M64.4,500h54.4v54.4H64.4V500L64.4,500z"/><path d="M10,391.1h54.4v54.4H10V391.1L10,391.1z"/><path d="M173.3,500h54.4v54.4h-54.4V500L173.3,500z"/><path d="M445.6,663.3H500v54.4h-54.4V663.3L445.6,663.3z"/><path d="M717.8,663.3h54.4v54.4h-54.4V663.3L717.8,663.3z"/><path d="M500,717.8h54.4v54.4H500V717.8L500,717.8z"/><path d="M391.1,772.2h54.4v54.4h-54.4V772.2z"/><path d="M500,881.1v-54.4h-54.4v54.4v54.4H500h54.4v-54.4H500z"/><path d="M554.4,935.6h54.4V990h-54.4V935.6L554.4,935.6z"/><path d="M554.4,772.2h54.4v54.4h-54.4V772.2L554.4,772.2z"/><path d="M336.7,608.9v54.4h54.4h54.4v-54.4h-54.4H336.7z"/><path d="M717.8,554.4h-54.4h-54.4h-54.4v54.4v54.4h54.4v-54.4h54.4v54.4h54.4v-54.4V554.4z"/><path d="M772.2,500h54.4v-54.4h54.4v-54.4h-54.4h-54.4h-54.4v54.4h54.4V500z"/><path d="M881.1,554.4h54.4V500v-54.4h-54.4V500V554.4z"/><path d="M935.6,608.9h-54.4v-54.4h-54.4v54.4h-54.4v54.4h54.4h54.4h54.4v54.4H990v-54.4v-54.4v-54.4h-54.4V608.9z"/><path d="M826.7,881.1h54.4h54.4v-54.4H990v-54.4h-54.4h-54.4h-54.4v54.4V881.1z"/><path d="M663.3,935.6h54.4V990h-54.4V935.6L663.3,935.6z"/><path d="M826.7,935.6h-54.4V990h54.4h54.4h54.4v-54.4h-54.4H826.7z"/><path d="M935.6,881.1H990v54.4h-54.4V881.1L935.6,881.1z"/><path d="M717.8,881.1h54.4v54.4h-54.4V881.1L717.8,881.1z"/><path d="M772.2,826.7v-54.4h-54.4h-54.4v54.4v54.4h54.4v-54.4H772.2z"/><path d="M772.2,717.8h54.4v54.4h-54.4V717.8L772.2,717.8z"/><path d="M663.3,445.6v-54.4h-54.4v54.4h-54.4V500h54.4h54.4h54.4v-54.4H663.3z"/><path d="M500,391.1h54.4v54.4H500V391.1L500,391.1z"/><path d="M554.4,336.7h54.4v54.4h-54.4V336.7L554.4,336.7z"/><path d="M554.4,282.2h54.4v-54.4h-54.4v-54.4h54.4v-54.4h-54.4H500v54.4v54.4h-54.4v54.4H500H554.4z"/><path d="M391.1,173.3h54.4v54.4h-54.4V173.3z"/><path d="M445.6,64.4H500v54.4h-54.4V64.4z"/><path d="M500,10h54.4v54.4H500V10L500,10z"/></g>
</svg>