<?xml version="1.0" encoding="UTF-8"?>
<svg width="231px" height="231px" viewBox="0 0 231 231" version="1.1" xmlns="http://www.w3.org/2000/svg" xmlns:xlink="http://www.w3.org/1999/xlink">
    <title>视频缺省图标</title>
    <defs>
        <filter color-interpolation-filters="auto" id="filter-1">
            <feColorMatrix in="SourceGraphic" type="matrix" values="0 0 0 0 0.137255 0 0 0 0 0.313725 0 0 0 0 0.529412 0 0 0 1.000000 0"></feColorMatrix>
        </filter>
    </defs>
    <g id="页面-1" stroke="none" stroke-width="1" fill="none" fill-rule="evenodd">
        <g filter="url(#filter-1)" id="视频缺省图标">
            <g transform="translate(0.833333, 0.833333)" id="编组" fill="#000000">
                <path d="M115,0 C178.512752,0 230,51.4871867 230,115 C230,178.512813 178.512752,230 115,230 C51.487248,230 0,178.512813 0,115 C0,51.4871867 51.487248,0 115,0 Z M115,17.8672316 C61.3550514,17.8672316 17.8672316,61.3550664 17.8672316,115 C17.8672316,168.644934 61.3550514,212.132768 115,212.132768 C168.644949,212.132768 212.132768,168.644934 212.132768,115 C212.132768,61.3550664 168.644949,17.8672316 115,17.8672316 Z M115,43.8559322 C154.291778,43.8559322 186.144068,75.708238 186.144068,115 C186.144068,154.291762 154.291778,186.144068 115,186.144068 C75.7082222,186.144068 43.8559322,154.291762 43.8559322,115 C43.8559322,75.708238 75.7082222,43.8559322 115,43.8559322 Z M115,62.6977401 C86.1142539,62.6977401 62.6977401,86.114209 62.6977401,115 C62.6977401,143.885791 86.1142539,167.30226 115,167.30226 C143.885746,167.30226 167.30226,143.885791 167.30226,115 C167.30226,86.114209 143.885746,62.6977401 115,62.6977401 Z M115,77.6412429 C120.085513,77.6412429 124.933708,78.6574011 129.352592,80.4976935 C125.191305,83.3943421 122.471751,88.2055523 122.471751,93.6521602 C122.471751,102.494679 129.640075,109.663077 138.482654,109.663077 C143.385946,109.663077 147.774434,107.458911 150.711385,103.987386 C151.780354,107.461451 152.358757,111.163106 152.358757,115 C152.358757,135.632644 135.632674,152.358757 115,152.358757 C107.422777,152.358757 100.372418,150.102886 94.4838856,146.226242 C97.1537965,144.915249 98.9890977,142.18014 98.9890977,139.016301 C98.9890977,134.595116 95.4049434,131.010917 90.983654,131.010917 C87.8198455,131.010917 85.0847063,132.846278 83.7848009,135.510256 C79.8970544,129.627597 77.6412429,122.577253 77.6412429,115 C77.6412429,94.3673562 94.3673263,77.6412429 115,77.6412429 Z" id="path-1"></path>
            </g>
        </g>
    </g>
</svg>