<?xml version="1.0" encoding="UTF-8"?>
<svg width="14px" height="14px" viewBox="0 0 14 14" version="1.1" xmlns="http://www.w3.org/2000/svg" xmlns:xlink="http://www.w3.org/1999/xlink">
    <title>通用图标/全屏 (窗口 放大)</title>
    <g id="2.7.0" stroke="none" stroke-width="1" fill="none" fill-rule="evenodd">
        <g id="画板" transform="translate(-1314.000000, -2802.000000)" fill="#000000">
            <g id="编组" transform="translate(1309.000000, 2797.000000)">
                <g id="common_windows_maximum" transform="translate(5.000000, 5.000000)">
                    <path d="M11.3883046,1.63157004 L10.0981559,0.34142136 C10.0200511,0.2633165 10.0200511,0.1366835 10.0981559,0.05857864 C10.1356632,0.02107137 10.186534,0 10.2395773,0 L13.9993752,0 L13.9993752,0 L13.9993752,3.75979797 C13.9993752,3.87025492 13.9098322,3.95979797 13.7993752,3.95979797 C13.7463319,3.95979797 13.6954612,3.93872661 13.6579539,3.90121933 L12.236726,2.4799914 L12.236726,2.4799914 L9.8615941,4.85512323 C9.6665941,5.0501232 9.3495941,5.0501232 9.1545941,4.85512323 C8.9595941,4.65912323 8.9595941,4.34312323 9.1555941,4.14712323 L11.3883046,1.91441276 C11.4664095,1.8363079 11.4664095,1.7096749 11.3883046,1.63157004 Z M2.46964929,1.7729914 L4.84378111,4.14712323 C5.0397811,4.34312323 5.0397811,4.65912323 4.84478111,4.85512323 C4.64978111,5.0501232 4.33278111,5.0501232 4.13778111,4.85512323 L1.76264929,2.4799914 L0.34142136,3.90121933 C0.2633165,3.97932419 0.1366835,3.97932419 0.05857864,3.90121933 C0.02107137,3.86371206 0,3.81284127 0,3.75979797 L0,0 L0,0 L3.75979797,0 C3.87025492,0 3.95979797,0.08954305 3.95979797,0.2 C3.95979797,0.2530433 3.93872661,0.30391408 3.90121933,0.34142136 L2.46964929,1.7729914 L2.46964929,1.7729914 Z M9.1555941,9.85425 C8.9595941,9.65825 8.9595941,9.34225 9.1545941,9.14625 C9.3495941,8.95125 9.6665941,8.95125 9.8615941,9.14625 L12.236726,11.5213818 L13.6579539,10.1001539 C13.7360587,10.022049 13.8626917,10.022049 13.9407966,10.1001539 C13.9783039,10.1376612 13.9993752,10.188532 13.9993752,10.2415753 L13.9993752,14.0013732 L13.9993752,14.0013732 L10.2395773,14.0013732 C10.1291203,14.0013732 10.0395773,13.9118302 10.0395773,13.8013732 C10.0395773,13.7483299 10.0606486,13.6974591 10.0981559,13.6599519 L11.529726,12.2283818 L11.529726,12.2283818 L9.1555941,9.85425 Z M3.75979797,14.0013732 L0,14.0013732 L0,14.0013732 L0,10.2415753 C0,10.1311183 0.08954305,10.0415753 0.2,10.0415753 C0.2530433,10.0415753 0.30391408,10.0626466 0.34142136,10.1001539 L1.76264929,11.5213818 L1.76264929,11.5213818 L4.13778111,9.14625 C4.33278111,8.95125 4.64978111,8.95125 4.84478111,9.14625 C5.0397811,9.34225 5.0397811,9.65825 4.84378111,9.85425 L2.46964929,12.2283818 L3.90121933,13.6599519 C3.97932419,13.7380567 3.97932419,13.8646897 3.90121933,13.9427946 C3.86371206,13.9803019 3.81284127,14.0013732 3.75979797,14.0013732 Z"></path>
                </g>
            </g>
        </g>
    </g>
</svg>