<?xml version="1.0" encoding="UTF-8"?>
<svg width="17px" height="14px" viewBox="0 0 17 14" version="1.1" xmlns="http://www.w3.org/2000/svg" xmlns:xlink="http://www.w3.org/1999/xlink">
    <title>通用图标/抓图</title>
    <g id="2.7.0" stroke="none" stroke-width="1" fill="none" fill-rule="evenodd">
        <g id="画板" transform="translate(-1273.000000, -2802.000000)" fill="#000000">
            <g id="编组" transform="translate(1270.000000, 2797.000000)">
                <g id="photo-add" transform="translate(3.615662, 5.000000)">
                    <path d="M12.8843384,7 C13.8203384,7 14.6993384,7.364 15.3603384,8.025 C16.0213384,8.686 16.3853384,9.565 16.3843384,10.5 C16.3843384,12.43 14.8143384,14 12.8833384,14 C10.9553384,14 9.38533844,12.43 9.38433844,10.5 C9.38433844,8.57 10.9543384,7 12.8843384,7 Z M10.5,0 C10.6060797,0.00061519 10.708588,0.03446414 10.793579,0.09576114 L10.85382,0.14679 L12.707,2 L15,2 C15.5128358,2 15.9355071,2.38604019 15.9932722,2.88337887 L16,3 L16,7.255 L15.8936017,7.1541984 C15.6207359,6.9087596 15.320753,6.6993086 15.0010864,6.5289244 L15,3 L12.5,3 C12.3939015,3.00012021 12.2912652,2.96640571 12.2065092,2.90483124 L12.14652,2.85352 L10.293,1 L5.707,1 L3.85352,2.85352 C3.77859736,2.9286589 3.68218579,2.97742574 3.57870795,2.99384454 L3.5,3 L1,3 L1,12 L8.64078314,12.0010919 C8.76665184,12.3569136 8.93600594,12.6921841 9.14245884,13.0005166 L1,13 C0.48716416,13 0.06449283,12.6139598 0.00672773,12.1166211 L0,12 L0,3 C0,2.48716416 0.38604019,2.06449284 0.88337887,2.00672773 L1,2 L3.293,2 L5.14636,0.14661 C5.22170851,0.07203811 5.3180215,0.02344237 5.42137876,0.00659373 L5.5,0 L10.5,0 Z M13.4253384,8 L12.4253384,8 L12.4253384,10 L10.4253384,10 L10.4253384,11 L12.4253384,11 L12.4253384,13 L13.4253384,13 L13.4253384,11 L15.4253384,11 L15.4253384,10 L13.4253384,10 L13.4253384,8 Z M8,3 C9.06086594,3 10.0782816,3.42142736 10.8284271,4.17157288 C11.3647324,4.70787821 11.7330193,5.3807939 11.8994094,6.1085303 C11.5654912,6.1827593 11.2465574,6.2940376 10.9460524,6.4376778 C10.6844143,5.0498206 9.46480654,4 8,4 C6.34314575,4 5,5.3431458 5,7 C5,8.6568542 6.34314575,10 8,10 C8.14012724,10 8.27924374,9.9901964 8.41643244,9.970969 C8.39485854,10.1432805 8.38433844,10.3204117 8.38433844,10.5 C8.38433844,10.6616639 8.39286334,10.8213368 8.40948814,10.9785935 C8.27573814,10.9929413 8.13869344,11 8,11 C5.790861,11 4,9.209139 4,7 C4,4.790861 5.790861,3 8,3 Z M8,5 C8.27614234,5 8.5,5.2238576 8.5,5.5 C8.5,5.7761424 8.27614234,6 8,6 C7.44801214,6.0007162 7.00071614,6.4480122 7,7 C7,7.2761424 6.77614234,7.5 6.5,7.5 C6.22385762,7.5 6,7.2761424 6,7 C6.00110245,5.8958875 6.89588744,5.0011025 8,5 Z"></path>
                </g>
            </g>
        </g>
    </g>
</svg>