<?xml version="1.0" encoding="UTF-8"?>
<svg width="16px" height="16px" viewBox="0 0 16 16" version="1.1" xmlns="http://www.w3.org/2000/svg" xmlns:xlink="http://www.w3.org/1999/xlink">
    <title>通用图标/关键帧开</title>
    <defs>
        <filter color-interpolation-filters="auto" id="filter-1">
            <feColorMatrix in="SourceGraphic" type="matrix" values="0 0 0 0 0.094118 0 0 0 0 0.564706 0 0 0 0 1.000000 0 0 0 1.000000 0"></feColorMatrix>
        </filter>
    </defs>
    <g id="2.8.0" stroke="none" stroke-width="1" fill="none" fill-rule="evenodd">
        <g id="画板" transform="translate(-368.000000, -4113.000000)">
            <g id="关键帧播放" transform="translate(364.000000, 4109.000000)" filter="url(#filter-1)">
                <g transform="translate(4.000000, 4.000000)">
                    <path d="M13.8218,7.2716 L14.7978,7.82080001 C14.7024,4.148 11.6956,1.2 8,1.2 C4.2444,1.2 1.2,4.2444 1.2,8 C1.2,11.7556 4.2444,14.8 8,14.8 C10.2976,14.8 12.3996,13.6526 13.6546,11.7784 C13.7734081,11.5991416 13.9790686,11.4971782 14.1936708,11.5111368 C14.4082729,11.5250954 14.5989922,11.652841 14.6935781,11.8459794 C14.7881639,12.0391179 14.7721489,12.2681076 14.6516,12.4462 C13.1762,14.6494 10.7022,16 8,16 C3.58180001,16 2.66453526e-16,12.4182 2.66453526e-16,8 C2.66453526e-16,3.58180001 3.58180001,2.66453526e-16 8,2.66453526e-16 C12.4182,2.66453526e-16 16,3.58179999 16,8 C16,8.20540001 15.984,8.49419999 15.9528,8.8724 C15.9166,9.30820001 15.4414,9.56020001 15.0604,9.3458 L13.2332,8.3174 C13.0463501,8.21225674 12.9297869,8.01541712 12.9274187,7.80102872 C12.9250505,7.58664032 13.037237,7.38727384 13.2217187,7.2780287 C13.4062004,7.16878357 13.6349501,7.16625672 13.8218,7.27139999 L13.8218,7.2716 Z M4.5758,10.5756 L7.4,7.75180001 L7.4,4.4 C7.4,4.06862915 7.66862915,3.8 8,3.8 C8.33137085,3.8 8.6,4.06862915 8.6,4.4 L8.6,8 C8.6,8.15911689 8.53672962,8.31170436 8.4242,8.4242 L5.4242,11.4242 C5.27355532,11.5801739 5.05047327,11.6427276 4.84069561,11.5878183 C4.63091795,11.532909 4.46709097,11.3690821 4.41218171,11.1593044 C4.35727244,10.9495267 4.41982605,10.7264447 4.5758,10.5758 L4.5758,10.5756 Z" id="形状" fill="#000000" fill-rule="nonzero"></path>
                </g>
            </g>
        </g>
    </g>
</svg>