<?xml version="1.0" encoding="UTF-8"?>
<svg width="16px" height="16px" viewBox="0 0 16 16" version="1.1" xmlns="http://www.w3.org/2000/svg" xmlns:xlink="http://www.w3.org/1999/xlink">
    <title>通用图标/设置</title>
    <defs>
        <filter color-interpolation-filters="auto" id="filter-1">
            <feColorMatrix in="SourceGraphic" type="matrix" values="0 0 0 0 0.000000 0 0 0 0 0.000000 0 0 0 0 0.000000 0 0 0 1.000000 0"></feColorMatrix>
        </filter>
    </defs>
    <g id="2.7.0" stroke="none" stroke-width="1" fill="none" fill-rule="evenodd">
        <g id="画板" transform="translate(-1201.000000, -2801.000000)">
            <g id="通用图标/设置" transform="translate(1197.000000, 2797.000000)" filter="url(#filter-1)">
                <g id="编组" transform="translate(4.000000, 4.000000)" fill="#000000">
                    <path d="M3.00143404,6.4158433 C2.89203248,6.7436018 2.81564818,7.0864675 2.7762284,7.440493 C2.7557749,7.6241929 2.74527402,7.8108702 2.74527402,8 C2.74527402,8.1891298 2.7557749,8.3758071 2.77622544,8.5594805 C2.81564818,8.9135325 2.89203248,9.2563982 3.00143404,9.5841567 L1.18309619,10.6339746 L2.18309619,12.3660254 L4.00258357,11.3155439 C4.23486936,11.5775612 4.4942482,11.815012 4.77633,12.0235063 C5.07552594,12.2446489 5.40024937,12.4332086 5.74527402,12.5839563 C6.0627766,12.7226791 6.3974704,12.8293815 6.745274,12.8999819 L6.745274,15 L8.745274,15 L8.745274,12.8999819 C9.0930776,12.8293815 9.4277714,12.7226791 9.7452737,12.5839564 C10.0902987,12.4332086 10.4150221,12.2446489 10.7142064,12.023515 C10.9962998,11.815012 11.2556787,11.5775612 11.4879645,11.3155439 L13.3074518,12.3660254 L14.3074518,10.6339746 L12.489114,9.5841567 C12.5985155,9.2563982 12.6748999,8.9135325 12.7143196,8.559507 C12.7347731,8.3758071 12.745274,8.1891298 12.745274,8 C12.745274,7.8108702 12.7347731,7.6241929 12.7143226,7.4405195 C12.6748999,7.0864675 12.5985155,6.7436018 12.489114,6.4158433 L14.3074518,5.3660254 L13.3074518,3.6339746 L11.4879645,4.68445612 C11.2556787,4.42243884 10.9962998,4.18498798 10.714218,3.97649365 C10.4150221,3.75535113 10.0902987,3.56679136 9.745274,3.41604369 C9.4277714,3.27732093 9.0930776,3.17061852 8.745274,3.10001812 L8.745274,1 L6.745274,1 L6.745274,3.10001812 C6.3974704,3.17061852 6.0627766,3.27732093 5.74527431,3.41604356 C5.40024937,3.56679136 5.07552594,3.75535113 4.77634166,3.97648503 C4.4942482,4.18498798 4.23486936,4.42243884 4.00258357,4.68445612 L2.18309619,3.6339746 L1.18309619,5.3660254 L3.00143404,6.4158433 Z M5.74527402,13.6585886 C5.04304508,13.4103863 4.40081628,13.0351677 3.84619198,12.5605371 L2.25008349,13.4820508 C2.01093718,13.620122 1.70514197,13.5381844 1.56707079,13.2990381 L0.067070787,10.7009619 C-0.071000403,10.4618156 0.010937177,10.1560204 0.250083487,10.0179492 L1.84531756,9.0969404 C1.77961378,8.7412979 1.74527402,8.3746592 1.74527402,8 C1.74527402,7.6253408 1.77961378,7.2587021 1.84531756,6.9030596 L0.250083487,5.98205081 C0.010937177,5.84397962 -0.071000403,5.53818442 0.067070787,5.29903811 L1.56707079,2.70096189 C1.70514197,2.46181558 2.01093718,2.379878 2.25008349,2.51794919 L3.84619198,3.43946286 C4.40081628,2.96483234 5.04304508,2.58961373 5.74527402,2.34141142 L5.74527402,0.5 C5.74527402,0.22385763 5.96913164,0 6.245274,0 L9.245274,0 C9.5214164,0 9.745274,0.22385763 9.745274,0.5 L9.745274,2.34141142 C10.4475029,2.58961373 11.0897318,2.96483234 11.6443561,3.43946286 L13.2404645,2.51794919 C13.4796109,2.379878 13.7854061,2.46181558 13.9234772,2.70096189 L15.4234772,5.29903811 C15.5615484,5.53818442 15.4796109,5.84397962 15.2404645,5.98205081 L13.6452305,6.9030596 C13.7109343,7.2587021 13.745274,7.6253408 13.745274,8 C13.745274,8.3746592 13.7109343,8.7412979 13.6452305,9.0969404 L15.2404645,10.0179492 C15.4796109,10.1560204 15.5615484,10.4618156 15.4234772,10.7009619 L13.9234772,13.2990381 C13.7854061,13.5381844 13.4796109,13.620122 13.2404645,13.4820508 L11.6443561,12.5605371 C11.0897318,13.0351677 10.4475029,13.4103863 9.745274,13.6585886 L9.745274,15.5 C9.745274,15.7761424 9.5214164,16 9.245274,16 L6.245274,16 C5.96913164,16 5.74527402,15.7761424 5.74527402,15.5 L5.74527402,13.6585886 Z M7.74527402,11 C6.0884198,11 4.74527402,9.6568542 4.74527402,8 C4.74527402,6.3431458 6.0884198,5 7.74527402,5 C9.4021283,5 10.745274,6.3431458 10.745274,8 C10.745274,9.6568542 9.4021283,11 7.74527402,11 Z M7.74527402,10 C8.8498435,10 9.74527402,9.1045695 9.74527402,8 C9.74527402,6.8954305 8.8498435,6 7.74527402,6 C6.6407045,6 5.74527402,6.8954305 5.74527402,8 C5.74527402,9.1045695 6.6407045,10 7.74527402,10 Z" id="color"></path>
                </g>
            </g>
        </g>
    </g>
</svg>