<?xml version="1.0" encoding="UTF-8"?>
<svg width="18px" height="16px" viewBox="0 0 18 16" version="1.1" xmlns="http://www.w3.org/2000/svg" xmlns:xlink="http://www.w3.org/1999/xlink">
    <title>通用图标/声音开_白色</title>
    <defs>
        <filter color-interpolation-filters="auto" id="filter-1">
            <feColorMatrix in="SourceGraphic" type="matrix" values="0 0 0 0 1.000000 0 0 0 0 1.000000 0 0 0 0 1.000000 0 0 0 0.900000 0"></feColorMatrix>
        </filter>
    </defs>
    <g id="2.7.0" stroke="none" stroke-width="1" fill="none" fill-rule="evenodd">
        <g id="画板" transform="translate(-1038.000000, -2801.000000)">
            <g id="编组" transform="translate(1035.000000, 2797.000000)">
                <g id="声音开" transform="translate(3.000000, 4.000000)" filter="url(#filter-1)">
                    <g>
                        <path d="M9.46266405,0 C9.28196912,0 9.0918302,0.0647552906 8.93841792,0.19469614 L4.41957556,4.19704639 L1.24723575,4.19704639 C0.560343168,4.19704639 0.00902425325,4.76220303 0.00902425325,5.45708538 L0,10.9417079 C0,11.6365903 0.560343168,12.2107825 1.24723575,12.2107825 L4.46469682,12.2107825 L8.92036941,15.8054541 C9.06668817,15.9326724 9.25276179,16.0017006 9.44461555,15.9999682 C9.87798957,15.9999682 10.2758962,15.6572269 10.2758962,15.1570407 L10.2939447,0.843324718 C10.3031788,0.342708233 9.89645781,0 9.46266405,0 L9.46266405,0 Z M9.04670895,14.2952144 L5.2239933,11.210195 C5.00739711,11.0361547 4.74011347,10.9416172 4.46490669,10.9417079 L1.22918724,10.9417079 L1.24744562,5.46612101 L4.41957556,5.45708538 C4.71800551,5.45708538 4.99796723,5.34564605 5.2239933,5.15116504 L9.06496731,1.75097446 L9.04670895,14.2952144 Z M12.6981737,3.84487226 C12.4177922,3.65060639 12.0291197,3.73386319 11.8484248,4.02106689 C11.6589155,4.30805546 11.7401337,4.70648336 12.0203053,4.89192874 C12.9781354,5.54980808 13.5567369,6.63365245 13.5567369,7.79171799 C13.5567369,8.91256539 13.0144422,9.96887262 12.1107577,10.6265368 C11.9767399,10.722801 11.8859658,10.8701253 11.8587496,11.0355402 C11.8315333,11.2009551 11.8701472,11.3706501 11.9659499,11.5066494 C12.0834751,11.682844 12.2729844,11.7755667 12.4721476,11.7755667 C12.5984871,11.7755667 12.7248267,11.7383486 12.8245132,11.6550918 C14.0539103,10.7564777 14.7857143,9.31099327 14.7857143,7.7822521 C14.7857143,6.20725714 14.0085792,4.73445076 12.6981737,3.84487226 L12.6981737,3.84487226 Z" id="形状" fill="#151515" fill-rule="nonzero"></path>
                        <path d="M15.1936743,1.49515924 C14.9343168,1.26350123 14.536033,1.28199945 14.3044177,1.5414048 C14.0730174,1.80081014 14.0917272,2.19895218 14.3506547,2.43039507 C15.8698105,3.79238068 16.7401422,5.72824144 16.7401422,7.74755935 C16.7401422,9.72063168 15.9440048,11.5545371 14.4990434,12.9163076 C14.2491483,13.1569996 14.2306534,13.5553568 14.4713011,13.8052979 C14.5917325,13.9352157 14.7584009,14 14.9343168,14 C15.0971267,14.0018374 15.2539004,13.9383882 15.3695902,13.8237961 C17.0644467,12.2120845 17.9999404,10.0538148 17.9999404,7.73809514 C18.0089728,5.37612989 16.9902524,3.09762177 15.1936743,1.49515924 Z" id="路径" fill="#151515" fill-rule="nonzero"></path>
                    </g>
                </g>
            </g>
        </g>
    </g>
</svg>