<?xml version="1.0" encoding="UTF-8"?>
<svg width="36px" height="36px" viewBox="0 0 36 36" version="1.1" xmlns="http://www.w3.org/2000/svg" xmlns:xlink="http://www.w3.org/1999/xlink">
    <title>AI小助手_右下角</title>
    <defs>
        <linearGradient x1="78.5361224%" y1="66.1396402%" x2="11.7312146%" y2="26.0262402%" id="linearGradient-1">
            <stop stop-color="#11D5FF" offset="0%"></stop>
            <stop stop-color="#C570FE" offset="100%"></stop>
        </linearGradient>
        <circle id="path-2" cx="18" cy="18" r="18"></circle>
        <path d="M7.67904254,11.6945234 C8.44590709,11.4618714 9.0254363,11.3455454 9.41763016,11.3455454 C9.80982403,11.3455454 10.3893532,11.4618714 11.1562178,11.6945234 C13.1603934,12.1401478 14.9741959,11.747725 16.5976252,10.5172549 C19.0327692,8.6715497 18.6109384,5.37081938 18.2989493,4.30313493 C17.9869603,3.23545049 15.9529805,0 9.27010896,0 C2.58723745,0 0.839206263,3.31617232 0.346250979,4.30313493 C-0.146704306,5.29009755 -0.044727941,6.80791599 0.228296227,7.85393028 C0.501320395,8.89994456 0.878700797,9.57530903 1.96822206,10.5172549 C3.05774332,11.4592007 5.85880892,12.0480374 7.67904254,11.6945234 Z" id="path-4"></path>
        <path d="M12.060253,18.7027921 C12.8271176,18.4701401 13.4066468,18.3538141 13.7988407,18.3538141 C14.1910345,18.3538141 14.7705637,18.4701401 15.5374283,18.7027921 C17.5416039,19.1484165 19.3554064,18.7559936 20.9788357,17.5255235 C23.4139796,15.6798184 22.9921489,12.3790881 22.6801598,11.3114036 C22.3681707,10.2437192 20.334191,7.00826868 13.6513195,7.00826868 C6.96844794,7.00826868 5.22041675,10.324441 4.72746147,11.3114036 C4.23450618,12.2983662 4.33648255,13.8161847 4.60950672,14.862199 C4.88253089,15.9082132 5.25991129,16.5835777 6.34943255,17.5255235 C7.43895381,18.4674694 10.2400194,19.0563061 12.060253,18.7027921 Z" id="path-6"></path>
        <ellipse id="path-8" cx="1.50377787" cy="1.52309171" rx="1.50377787" ry="1.52309171"></ellipse>
        <ellipse id="path-10" cx="13.7813546" cy="3.75824438" rx="1.50377787" ry="1.52309171"></ellipse>
    </defs>
    <g id="页面-2" stroke="none" stroke-width="1" fill="none" fill-rule="evenodd">
        <g id="AI助手" transform="translate(-1639.000000, -763.000000)">
            <g id="AI小助手_右下角" transform="translate(1639.000000, 763.000000)">
                <mask id="mask-3" fill="white">
                    <use xlink:href="#path-2"></use>
                </mask>
                <use id="蒙版" fill="url(#linearGradient-1)" xlink:href="#path-2"></use>
                <g id="编组-32" mask="url(#mask-3)">
                    <g transform="translate(3.600000, 3.600000)">
                        <path d="M8.04892068,20.0773311 C6.03850044,21.510898 4.72128182,22.728472 4.09726485,23.7300531 C3.16123938,25.2324248 2.72397003,27.1408868 2.89823205,28.0621082 C3.07249408,28.9833296 3.66651987,29.3678364 4.38121049,29.5767666 C4.8576709,29.7160533 5.6394959,29.7160533 6.7266855,29.5767666 L8.63073459,20.0773311 L8.04892068,20.0773311 Z" id="路径-57" stroke="#3C3A35" stroke-width="0.5" fill="#FBF4DB" fill-rule="evenodd"></path>
                        <path d="M5.45478832,25.4555884 C5.27287237,25.3663786 4.80444856,25.2374685 4.04951689,25.0688581 C3.53428933,24.9537844 3.52689304,24.7805277 3.32962878,25.3217737 C2.93713763,26.3986755 2.78225804,27.4490214 2.89823205,28.0621082 C3.07249408,28.9833296 3.66651987,29.3678364 4.38121049,29.5767666 C4.8576709,29.7160533 5.6394959,29.7160533 6.7266855,29.5767666 L7.04178621,26.3730586 L5.45478832,25.4555884 Z" id="路径-57" stroke="#3C3A35" stroke-width="0.5" fill="#FFFFFF" fill-rule="evenodd"></path>
                        <path d="M4.11169984,26.5875639 C3.56443394,26.4678044 3.29460631,25.8836335 3.0846449,25.34618 C2.87468348,24.8087264 2.82752681,24.5134998 3.17305228,24.0116819 C3.37363615,23.7203674 3.80440315,23.7915266 4.23404771,23.8434921 C4.54450821,23.8810423 4.84725912,23.8494004 5.09609188,23.945652 C5.68928292,24.1751055 5.73474991,24.8915684 6.24319349,25.14056 C6.58215587,25.3065544 7.11457858,25.3065544 7.84046161,25.14056 L7.04178621,28.5660106 C6.4818514,28.4505305 6.10755465,28.2941812 5.91889594,28.0969627 C5.36504913,27.517987 5.66250122,26.9635513 5.17992579,26.6529313 C4.69735036,26.3423114 4.65896573,26.7073233 4.11169984,26.5875639 Z" id="路径-58" stroke="#3C3A35" stroke-width="0.5" fill="#FFFFFF" fill-rule="evenodd"></path>
                        <path d="M20.9039328,20.3530948 C23.0216855,21.8223789 24.4171544,23.1058897 25.0903397,24.2036273 C26.1001176,25.8502336 26.5274565,27.97341 26.5994338,28.7228353 C26.6714111,29.4722607 26.1523334,30.3106971 25.6267876,30.4756203 C25.2764238,30.5855692 24.5745357,30.5855692 23.5211235,30.4756203 L20.9039328,20.3530948 Z" id="路径-59" stroke="#3C3A35" stroke-width="0.5" fill="#FBF4DB" fill-rule="evenodd"></path>
                        <path d="M23.324563,27.5124285 C23.4175735,27.6506139 23.9091789,27.4944886 24.799379,27.0440526 C26.1346793,26.3683986 26.5274565,27.97341 26.5994338,28.7228353 C26.6714111,29.4722607 26.1523334,30.3106971 25.6267876,30.4756203 C25.2764238,30.5855692 24.5745357,30.5855692 23.5211235,30.4756203 L23.324563,27.5124285 Z" id="路径-59" stroke="#3C3A35" stroke-width="0.5" fill="#FFFFFF" fill-rule="evenodd"></path>
                        <path d="M22.7945028,27.3564241 C23.2748031,26.9372277 23.6714797,26.6827612 23.9845327,26.5930247 C24.4541122,26.4584199 24.6051711,26.7515626 25.0903397,26.6983232 C25.5755083,26.6450839 25.7089308,26.3730586 25.9890787,26.3730586 C26.2692266,26.3730586 26.0948831,26.3803694 26.6061461,26.6983232 C27.117409,27.0162771 27.5703093,26.8375185 27.5703093,27.3564241 C27.5703093,27.8753297 27.0325076,27.9080951 26.74229,27.9930212 C26.4520724,28.0779474 26.1692919,27.7846849 25.8291751,27.865931 C25.4890583,27.9471772 25.6148643,28.3005141 24.8358036,28.5110684 C24.4956675,28.6029959 24.0171615,28.4993085 23.5751631,28.5110684 C23.4198865,28.5151997 23.2019749,28.5621098 22.9214284,28.6517985 L22.7945028,27.3564241 Z" id="路径-60" stroke="#3C3A35" stroke-width="0.5" fill="#FFFFFF" fill-rule="evenodd"></path>
                        <path d="M8.68570886,19.8795285 C7.91738797,22.7915888 7.36941375,25.0277956 7.04178621,26.5881489 C6.71415867,28.1485022 6.39494543,30.0423476 6.08414649,32.269685 L7.21896562,33.4591383 L10.9842834,34.6883722 L13.5964178,34.6883722 L17.8497915,34.9034283 L21.5083819,34.4514995 L24.1249224,33.3237857 C23.4457126,28.1753611 22.8262559,22.9443571 21.1421717,19.1846769 L8.68570886,19.8795285 Z" id="路径-54" stroke="#3C3A35" stroke-width="0.5" fill="#FBF4DB" fill-rule="evenodd"></path>
                        <path d="M13.8080326,23.2204837 C13.4619057,23.5202181 13.2643033,23.8211316 13.2152255,24.1232244 C13.1416088,24.5763635 13.5473019,24.6630923 13.4941225,25.1527207 C13.440943,25.6423491 13.0409088,25.6920693 13.0061379,26.0483147 C12.9713669,26.40456 13.4751088,26.3839831 13.3095212,27.0440526 C13.1439335,27.7041221 12.5459974,27.7926344 12.4632137,28.2125326 C12.3804299,28.6324308 12.8545532,29.0334905 12.8301774,29.4753944 C12.8058016,29.9172984 12.4438525,29.7837114 12.3506614,30.2529685 C12.2574702,30.7222257 12.6612584,30.7238089 12.4632137,31.3232126 C12.2651689,31.9226163 11.753331,31.791179 11.6634478,32.2263717 C11.5735647,32.6615644 12.1324377,33.4365557 11.8576522,33.9823349 C11.5828666,34.5281142 10.9340941,33.843678 10.5318969,33.8650415 C10.1296998,33.886405 10.0352094,34.0976736 9.73002312,33.9823349 C9.42483681,33.8669963 9.34339694,33.4620259 8.84091705,33.2574887 C8.33843716,33.0529516 8.09386488,33.3132739 7.77099253,33.184901 C7.44812018,33.0565282 7.60505721,32.779564 7.04178621,32.5421609 C6.86902548,32.4693471 6.12109801,32.250155 5.95314174,32.4924952 C5.84862446,32.6433007 5.5637111,32.8735939 6.21515743,33.5357425 C6.46067212,33.7852906 6.88666257,33.7112011 7.20086822,33.8650415 C7.44246939,33.9833336 7.51164439,34.2949424 7.84046161,34.4108208 C8.16927883,34.5266991 8.24645257,34.2282104 8.57444956,34.3532847 C8.90244656,34.478359 9.0098193,34.8939872 9.45972764,35.0282916 C9.90963597,35.1625959 10.0768609,34.8435217 10.4173844,34.9034283 C10.757908,34.963335 11.2384387,35.5954702 12.2504244,35.0282916 C12.4999072,34.8884661 12.8302723,34.2986147 12.9317876,33.8650415 C13.0333029,33.4314684 12.6404861,33.3606107 12.7533257,32.8803935 C12.8661653,32.4001763 13.3955852,31.8848143 13.4941225,31.4718844 C13.5926597,31.0589544 13.2811891,30.9094347 13.3095212,30.5496021 C13.3378532,30.1897694 13.6073183,29.9811021 13.6513195,29.4753944 C13.6953206,28.9696867 13.422038,28.8279999 13.4941225,28.4279696 C13.5662069,28.0279394 13.97483,27.7352399 14.04,27.3184254 C14.10517,26.9016108 13.7754835,26.7096952 13.8080326,26.4202607 C13.8405817,26.1308262 14.1729593,26.0686389 14.2317092,25.6136993 C14.2904592,25.1587596 14.004586,24.9368609 14.04,24.6239843 C14.0636093,24.4153999 14.1895095,24.1975717 14.4177004,23.9704997 L14.5905665,23.0521419 L13.8080326,23.2204837 Z" id="路径-55" stroke="#3C3A35" stroke-width="0.5" fill="#FFFFFF" fill-rule="evenodd"></path>
                        <path d="M13.1594165,35.395718 C12.6289964,35.262825 12.6289964,34.6247372 12.7046293,34.2614376 C12.7802623,33.898138 12.9924409,33.5730378 13.5118063,33.5730378 C14.0311716,33.5730378 14.2527327,34.1766682 14.7431975,34.2614376 C15.2336623,34.346207 15.2843372,33.9250293 16.1636353,33.9905114 C17.0429334,34.0559935 17.1381527,34.4815526 17.6989173,34.4815526 C18.2596819,34.4815526 18.8032187,34.0050779 19.3733932,33.9260988 C19.9435678,33.8471197 20.3300884,34.1282542 20.8245742,34.0485946 C21.31906,33.968935 21.7106771,33.5914155 22.0419009,33.4962135 C22.3731248,33.4010114 22.6735394,33.6420592 23.0228288,33.4167611 C23.3721182,33.191463 23.6480209,32.4579331 23.9502648,32.3470076 C24.2525087,32.236082 24.9305673,32.3234653 25.0465196,32.5869094 C25.1624719,32.8503534 25.062921,33.2737022 24.5711863,33.7172889 C24.3924638,33.8785119 24.1082434,33.8400038 23.7961025,33.9905114 C23.5356966,34.1160735 23.1682912,34.5083313 22.9352811,34.5876488 C22.7022711,34.6669664 22.4463979,34.4767414 22.0419009,34.5876488 C21.637404,34.6985563 21.3807563,35.05346 20.8245742,35.1663754 C20.2683921,35.2792907 19.5977994,35.107856 19.0788866,35.1663754 C18.5599739,35.2248947 18.9821798,35.4709151 17.8730275,35.4992304 C16.7638752,35.5275456 16.0671776,35.2680921 15.4132163,35.262825 C14.0796289,35.252084 13.3966808,35.4551629 13.1594165,35.395718 Z" id="路径-56" stroke="#3C3A35" stroke-width="0.5" fill="#FFFFFF" fill-rule="evenodd"></path>
                        <path d="M19.326968,21.8591804 L18.5075136,27.1669364 C18.9787114,27.7886982 19.8408259,28.062019 21.0938568,27.9868985 C22.3468878,27.9117781 23.0904565,27.5950767 23.324563,27.0367944 C23.1430403,25.2884737 22.9430428,23.9849443 22.7245707,23.1262063 C22.5060986,22.2674683 22.1598483,21.4238872 21.6858196,20.5954629 L19.326968,21.8591804 Z" id="路径-53" stroke="#3C3A35" stroke-width="0.5" fill="#E44A3E" fill-rule="evenodd"></path>
                        <path d="M8.84037018,20.4663411 C7.92710204,20.567529 7.37319101,20.7487478 7.17863708,21.0099974 C6.88680619,21.4018718 7.0733851,21.9116446 7.62710998,22.4246017 C7.9962599,22.766573 8.65467575,23.0716202 9.60235754,23.3397431 C12.9439339,23.553934 15.7598023,23.4424211 18.0499628,23.0052042 C20.3401233,22.5679873 21.8267175,21.5598053 22.5097453,19.9806581 L21.5195535,19.411852 L12.0536846,20.2780193 L8.84037018,20.4663411 Z" id="路径-52" stroke="#3C3A35" stroke-width="0.5" fill="#E44A3E" fill-rule="evenodd"></path>
                        <path d="M2.45415644,8.22805482 C1.79282696,8.80139238 -0.161304458,11.1420493 0.0106709777,13.4792516 C0.182646413,15.8164539 1.59625671,18.2777401 4.33351967,19.4654441 C7.07078263,20.6531481 10.2091793,21.1171495 13.933672,21.1171495 C17.6581647,21.1171495 21.5963904,20.7054003 24.7041103,18.8589026 C27.8118302,17.012405 28.08,14.6845026 28.08,12.673094 C28.08,10.6616853 26.8139956,9.59685248 26.1617548,9.05987174 C25.509514,8.52289101 23.7426792,7.48108406 22.7773537,6.41089436 C21.8120281,5.34070467 21.3610775,4.29429134 19.9209367,2.87896036 C18.4807959,1.46362938 16.4465431,0 13.8413722,0 C11.2362013,0 9.30002062,1.07111244 7.69431639,2.79504188 C6.08861216,4.51897133 6.1120807,5.13573197 4.38742992,6.5970439 C2.66277915,8.05835584 3.11548593,7.65471726 2.45415644,8.22805482 Z" id="路径-47" stroke="#3C3A35" stroke-width="0.5" fill="#FFFFFF" fill-rule="evenodd"></path>
                        <g id="路径-51" stroke="none" stroke-width="1" fill="none" fill-rule="evenodd" transform="translate(4.381210, 7.008269)">
                            <g id="蒙版">
                                <mask id="mask-5" fill="white">
                                    <use xlink:href="#path-4"></use>
                                </mask>
                                <use fill="#FEECDC" xlink:href="#path-4"></use>
                                <path d="M13.0521761,11.8722411 C11.2389732,9.36701494 11.2389732,7.47813707 13.0521761,6.20560752 C14.8653789,4.93307797 16.6947262,5.04194203 18.5402179,6.53219971 L19.3333118,8.01805263 L17.4471397,10.9853392 C15.0900317,11.9308353 13.9114777,12.4035833 13.9114777,12.4035833 C13.9114777,12.4035833 13.6250438,12.2264693 13.0521761,11.8722411 Z" id="路径-50" fill="#F8D0B2" mask="url(#mask-5)"></path>
                            </g>
                            <path d="M5.93821468,11.8722411 C7.29622406,8.93357288 7.00958513,6.90099131 5.07829788,5.77449637 C3.3053033,4.94051793 1.65896797,5.5352243 0.139291886,7.5586155 L0,9.81360897 L2.93509571,11.8722411 L5.93821468,11.8722411 Z" fill="#F8D0B2"></path>
                        </g>
                        <path d="M11.937231,14.4027976 C11.937231,14.2024565 12.3389998,13.9377819 13.6957926,13.9377819 C15.0525853,13.9377819 15.2830839,14.1765682 15.2531719,14.4027976 C15.2232599,14.6290269 14.4241867,15.4879221 13.5952014,15.4879221 C12.7662162,15.4879221 11.937231,14.6031386 11.937231,14.4027976 Z" id="路径-49" stroke="#3C3A35" stroke-width="0.5" fill="#E98E89" fill-rule="evenodd"></path>
                        <ellipse id="椭圆形" stroke="none" fill="#3C3A35" fill-rule="evenodd" cx="9.69967181" cy="12.1352488" rx="1" ry="1.63188397"></ellipse>
                        <ellipse id="椭圆形" stroke="none" fill="#3C3A35" fill-rule="evenodd" cx="17.4333865" cy="12.1352488" rx="1" ry="1.63188397"></ellipse>
                        <mask id="mask-7" fill="white">
                            <use xlink:href="#path-6"></use>
                        </mask>
                        <use id="蒙版" stroke="#3C3A35" stroke-width="0.5" fill="none" xlink:href="#path-6"></use>
                        <ellipse id="椭圆形" stroke="#3C3A35" stroke-width="0.5" fill="none" cx="13.7813546" cy="3.75824438" rx="2.54273032" ry="2.57859888"></ellipse>
                        <ellipse id="椭圆形" stroke="#3C3A35" stroke-width="0.5" fill="#D3DDE1" fill-rule="evenodd" cx="13.7813546" cy="3.75824438" rx="1.89825409" ry="1.92584529"></ellipse>
                        <g id="椭圆形" stroke="none" stroke-width="1" fill="none" fill-rule="evenodd" transform="translate(12.277577, 2.235153)">
                            <mask id="mask-9" fill="white">
                                <use xlink:href="#path-8"></use>
                            </mask>
                            <use id="蒙版" fill="#585F5F" xlink:href="#path-8"></use>
                            <ellipse fill="#3C3A35" mask="url(#mask-9)" cx="1.07412705" cy="0.870338118" rx="1.50377787" ry="1.52309171"></ellipse>
                        </g>
                        <mask id="mask-11" fill="white">
                            <use xlink:href="#path-10"></use>
                        </mask>
                        <ellipse stroke="#3C3A35" stroke-width="0.5" cx="13.7813546" cy="3.75824438" rx="1.25377787" ry="1.27309171"></ellipse>
                        <ellipse id="椭圆形" stroke="none" fill="#FFFFFF" fill-rule="evenodd" mask="url(#mask-11)" cx="13.2117627" cy="3.15497568" rx="1" ry="1"></ellipse>
                    </g>
                </g>
            </g>
        </g>
    </g>
</svg>