<?xml version="1.0" encoding="UTF-8"?>
<svg width="16px" height="20px" viewBox="0 0 16 20" version="1.1" xmlns="http://www.w3.org/2000/svg" xmlns:xlink="http://www.w3.org/1999/xlink">
    <title>灾备</title>
    <defs>
        <filter color-interpolation-filters="auto" id="filter-1">
            <feColorMatrix in="SourceGraphic" type="matrix" values="0 0 0 0 1.000000 0 0 0 0 1.000000 0 0 0 0 1.000000 0 0 0 1.000000 0"></feColorMatrix>
        </filter>
    </defs>
    <g id="运维平台V2.11" stroke="none" stroke-width="1" fill="none" fill-rule="evenodd">
        <g id="画板" transform="translate(-439.000000, -189.000000)">
            <g id="灾备" transform="translate(439.000000, 189.000000)">
                <rect id="矩形" fill="#52C41A" x="0" y="0" width="16" height="20" rx="1"></rect>
                <rect id="矩形" fill="#FFFFFF" x="0" y="5" width="2" height="1"></rect>
                <rect id="矩形" fill="#FFFFFF" x="0" y="7" width="2" height="1"></rect>
                <rect id="矩形" fill="#FFFFFF" x="0" y="9" width="2" height="1"></rect>
                <rect id="矩形" fill="#FFFFFF" x="0" y="11" width="2" height="1"></rect>
                <rect id="矩形" fill="#FFFFFF" x="0" y="13" width="2" height="1"></rect>
                <rect id="矩形" fill="#FFFFFF" x="14" y="5" width="2" height="1"></rect>
                <rect id="矩形" fill="#FFFFFF" x="14" y="7" width="2" height="1"></rect>
                <rect id="矩形" fill="#FFFFFF" x="14" y="9" width="2" height="1"></rect>
                <rect id="矩形" fill="#FFFFFF" x="14" y="11" width="2" height="1"></rect>
                <rect id="矩形" fill="#FFFFFF" x="14" y="13" width="2" height="1"></rect>
                <rect id="矩形" stroke="#FFFFFF" x="1.75" y="1.5" width="12.5" height="17" rx="1"></rect>
                <g filter="url(#filter-1)" id="编组">
                    <g transform="translate(4.000000, 6.000000)">
                        <path d="M4.44944019,0.158437105 L4.50481739,0.229682105 L8.08898469,5.8050531 C8.14083029,5.8857021 8.16839549,5.9795561 8.16839549,6.0754321 C8.16839549,6.3208921 7.99152029,6.5250401 7.75827109,6.5673761 L7.66839549,6.5754321 L0.500060886,6.5754321 C0.404185086,6.5754321 0.310330786,6.5478671 0.229682186,6.4960211 C0.0232065859,6.3632871 -0.0528722141,6.1041091 0.0376469859,5.8850111 L0.0794716859,5.8050531 L3.66363899,0.229682105 C3.70237199,0.169431105 3.75359809,0.118205105 3.81384939,0.0794721049 C4.02032499,-0.0532628951 4.28769689,-0.0148738951 4.44944019,0.158437105 Z M4.11629219,4.5918381 C3.84014979,4.5918381 3.61629219,4.8156961 3.61629219,5.0918381 C3.61629219,5.3679811 3.84014979,5.5918381 4.11629219,5.5918381 C4.39243459,5.5918381 4.61629219,5.3679811 4.61629219,5.0918381 C4.61629219,4.8156961 4.39243459,4.5918381 4.11629219,4.5918381 Z M4.11629219,1.5918381 C3.87083229,1.5918381 3.66668379,1.7687131 3.62434789,2.0019631 L3.61629219,2.0918381 L3.61629219,3.5918381 C3.61629219,3.8679811 3.84014979,4.0918381 4.11629219,4.0918381 C4.36175209,4.0918381 4.56590059,3.9149631 4.60823649,3.6817141 L4.61629219,3.5918381 L4.61629219,2.0918381 C4.61629219,1.8156961 4.39243459,1.5918381 4.11629219,1.5918381 Z" id="形状结合" fill="#000000"></path>
                    </g>
                </g>
            </g>
        </g>
    </g>
</svg>