<?xml version="1.0" encoding="UTF-8"?>
<svg width="10px" height="9px" viewBox="0 0 10 9" version="1.1" xmlns="http://www.w3.org/2000/svg" xmlns:xlink="http://www.w3.org/1999/xlink">
    <title>故障标识</title>
    <defs>
        <filter color-interpolation-filters="auto" id="filter-1">
            <feColorMatrix in="SourceGraphic" type="matrix" values="0 0 0 0 1.000000 0 0 0 0 0.301961 0 0 0 0 0.309804 0 0 0 1.000000 0"></feColorMatrix>
        </filter>
    </defs>
    <g id="运维平台" stroke="none" stroke-width="1" fill="none" fill-rule="evenodd" fill-opacity="0.701960784">
        <g id="运维巡检" transform="translate(-905.000000, -1968.000000)">
            <g id="故障标识" transform="translate(812.000000, 1414.000000)" filter="url(#filter-1)">
                <g transform="translate(93.000000, 554.000000)" id="编组" fill="#000000">
                    <path d="M4.66903125,0.0972916623 C4.95340166,-0.0855179243 5.33212598,-0.00318657761 5.51493545,0.281183836 L5.51493545,0.281183836 L9.90278287,7.1067242 C9.96625384,7.20545681 10,7.32035612 10,7.43773021 C10,7.7757922 9.72594655,8.04984553 9.38788468,8.04984553 L9.38788468,8.04984553 L0.612189841,8.04984553 C0.494815749,8.04984553 0.37991644,8.01609937 0.281183953,7.95262839 C-0.00318658333,7.76981893 -0.0855179301,7.39109461 0.0972916566,7.1067242 L0.0972916566,7.1067242 L4.48513908,0.281183836 C4.5325572,0.207422349 4.59526976,0.144709788 4.66903125,0.0972916623 Z M5.03929099,5.62146935 C4.70122901,5.62146935 4.42717567,5.89552268 4.42717567,6.23358467 C4.42717567,6.57164665 4.70122901,6.84569999 5.03929099,6.84569999 C5.37735298,6.84569999 5.65140631,6.57164665 5.65140631,6.23358467 C5.65140631,5.89552268 5.37735298,5.62146935 5.03929099,5.62146935 Z M5.03929099,1.94877743 C4.70122901,1.94877743 4.42717567,2.22283077 4.42717567,2.56089275 L4.42717567,2.56089275 L4.42717567,4.39723871 C4.42717567,4.7353007 4.70122901,5.00935403 5.03929099,5.00935403 C5.37735298,5.00935403 5.65140631,4.7353007 5.65140631,4.39723871 L5.65140631,4.39723871 L5.65140631,2.56089275 C5.65140631,2.22283077 5.37735298,1.94877743 5.03929099,1.94877743 Z" id="Color"></path>
                </g>
            </g>
        </g>
    </g>
</svg>