<?xml version="1.0" encoding="UTF-8"?>
<svg width="16px" height="20px" viewBox="0 0 16 20" version="1.1" xmlns="http://www.w3.org/2000/svg" xmlns:xlink="http://www.w3.org/1999/xlink">
    <title>HDD2</title>
    <g id="运维平台V2.11" stroke="none" stroke-width="1" fill="none" fill-rule="evenodd">
        <g id="画板" transform="translate(-416.000000, -189.000000)">
            <g id="HDD2" transform="translate(416.000000, 189.000000)">
                <rect id="矩形" fill="#52C41A" x="0" y="0" width="16" height="20" rx="1"></rect>
                <text id="HDD" font-family="MicrosoftYaHei, Microsoft YaHei" font-size="6" font-weight="bold" line-spacing="8" fill="#FFFFFF">
                    <tspan x="1" y="8">HDD</tspan>
                </text>
                <g id="编组-8" transform="translate(5.000000, 11.000000)" fill="#FFFFFF">
                    <rect id="矩形" x="4.125" y="0" width="1.375" height="4.125"></rect>
                    <rect id="矩形" x="0" y="2.75" width="1.375" height="4.125"></rect>
                    <polygon id="矩形" transform="translate(2.750000, 0.687500) rotate(90.000000) translate(-2.750000, -0.687500) " points="2.0625 -2.0625 3.4375 -2.0625 3.4375 3.4375 2.0625 3.4375"></polygon>
                    <polygon id="矩形" transform="translate(3.093750, 6.187500) rotate(90.000000) translate(-3.093750, -6.187500) " points="2.40625 3.78125 3.78125 3.78125 3.78125 8.59375 2.40625 8.59375"></polygon>
                    <polygon id="矩形" transform="translate(2.711806, 3.437500) rotate(90.000000) translate(-2.711806, -3.437500) " points="2.02430556 0.993055556 3.39930556 0.993055556 3.39930556 5.88194444 2.02430556 5.88194444"></polygon>
                </g>
            </g>
        </g>
    </g>
</svg>