<?xml version="1.0" encoding="UTF-8"?>
<svg width="36px" height="36px" viewBox="0 0 36 36" version="1.1" xmlns="http://www.w3.org/2000/svg" xmlns:xlink="http://www.w3.org/1999/xlink">
    <title>icon_预览</title>
    <g id="运维平台" stroke="none" stroke-width="1" fill="none" fill-rule="evenodd">
        <g id="运维巡检" transform="translate(-1091.000000, -3847.000000)">
            <g id="icon_预览" transform="translate(1091.000000, 3847.000000)">
                <circle id="椭圆形" fill="#8A8A8A" cx="18" cy="18" r="18"></circle>
                <g id="编组-23" transform="translate(10.000000, 9.000000)" fill="#FFFFFF" fill-rule="nonzero">
                    <path d="M7.5,0 C3.35825893,0 0,3.48981959 0,7.79381443 C0,12.0978093 3.35825893,15.5876289 7.5,15.5876289 C11.6417411,15.5876289 15,12.0978093 15,7.79381443 C15,3.48981959 11.6417411,0 7.5,0 Z M7.5,1.94845361 C7.94363839,1.94845361 8.30357143,2.32248711 8.30357143,2.78350515 C8.30357143,3.2445232 7.94363839,3.6185567 7.5,3.6185567 C7.05636161,3.6185567 6.69642857,3.2445232 6.69642857,2.78350515 C6.69642857,2.32248711 7.05636161,1.94845361 7.5,1.94845361 Z M7.5,11.6907216 C5.42912946,11.6907216 3.75,9.94581186 3.75,7.79381443 C3.75,5.64181701 5.42912946,3.89690722 7.5,3.89690722 C9.57087054,3.89690722 11.25,5.64181701 11.25,7.79381443 C11.25,9.94581186 9.57087054,11.6907216 7.5,11.6907216 Z" id="形状"></path>
                    <path d="M10.1290008,7.97938144 C10.1290008,8.72222938 9.85109901,9.42158505 9.34384455,9.94697165 C8.83826419,10.4740979 8.16527312,10.7628866 7.45042937,10.7628866 C6.73558562,10.7628866 6.06259455,10.4740979 5.55701419,9.94697165 C5.04975972,9.42158505 4.77185794,8.72222938 4.77185794,7.97938144 C4.77185794,7.23653351 5.04975972,6.53717784 5.55701419,6.01179124 C6.06259455,5.48466495 6.73558562,5.19587629 7.45042937,5.19587629 C8.16527312,5.19587629 8.83826419,5.48466495 9.34384455,6.01179124 C9.85109901,6.53717784 10.1290008,7.23653351 10.1290008,7.97938144 Z M12.584916,15.5452964 C12.9029963,15.7714562 12.8929517,16.262049 12.5665008,16.4760309 C11.0832419,17.4415593 9.33045169,18 7.45042937,18 C5.57040705,18 3.81761687,17.4415593 2.33435794,16.4742912 C2.00790705,16.262049 1.9978624,15.7714562 2.31594276,15.5435567 C2.49172401,15.418299 2.7227508,15.4130799 2.90522847,15.5313789 C3.29027312,15.7818943 3.69373294,16.0010954 4.11560794,16.1855026 C5.17029544,16.6517397 6.29194722,16.8865979 7.45042937,16.8865979 C8.60891151,16.8865979 9.7305633,16.6517397 10.7869249,16.1872423 C11.2087999,16.0010954 11.6122597,15.783634 11.9973044,15.5331186 C12.1781079,15.4148196 12.4091347,15.418299 12.584916,15.5452964 L12.584916,15.5452964 Z" id="形状"></path>
                </g>
            </g>
        </g>
    </g>
</svg>