<?xml version="1.0" encoding="UTF-8"?>
<svg width="36px" height="36px" viewBox="0 0 36 36" version="1.1" xmlns="http://www.w3.org/2000/svg" xmlns:xlink="http://www.w3.org/1999/xlink">
    <title>icon_恢复出厂</title>
    <g id="运维平台" stroke="none" stroke-width="1" fill="none" fill-rule="evenodd">
        <g id="运维巡检" transform="translate(-1481.000000, -3847.000000)">
            <g id="icon_恢复出厂" transform="translate(1481.000000, 3847.000000)">
                <circle id="椭圆形" fill="#8A8A8A" cx="18" cy="18" r="18"></circle>
                <path d="M12.9430302,11.0689131 C16.1887599,8.263569 21.0158453,8.31701179 24.1986908,11.1935294 C27.3815363,14.0700471 27.9223549,18.867883 25.4597562,22.3809869 L22.7485861,17.5012811 L25.2985344,17.5012811 C25.299108,14.7755979 23.6723958,12.3129252 21.1654219,11.2441795 C18.658448,10.1754338 15.7556554,10.7071377 13.790074,12.5951202 L12.9430302,11.0689131 Z M24.054734,23.9330193 C20.8090174,26.7363808 15.9836953,26.682252 12.8016593,23.8067862 C9.6196233,20.9313205 9.07776922,16.1353685 11.538008,12.6222052 L14.2491781,17.5012811 L11.6992297,17.5012811 C11.6986561,20.2269643 13.3253684,22.6896371 15.8323423,23.7583827 C18.3393162,24.8271284 21.2421088,24.2954246 23.2076901,22.407442 L24.054734,23.9336492 L24.054734,23.9330193 Z" id="形状" fill="#FFFFFF" fill-rule="nonzero"></path>
            </g>
        </g>
    </g>
</svg>