<?xml version="1.0" encoding="UTF-8"?>
<svg width="36px" height="36px" viewBox="0 0 36 36" version="1.1" xmlns="http://www.w3.org/2000/svg" xmlns:xlink="http://www.w3.org/1999/xlink">
    <title>icon_回放</title>
    <g id="运维平台" stroke="none" stroke-width="1" fill="none" fill-rule="evenodd">
        <g id="运维巡检" transform="translate(-1189.000000, -3847.000000)">
            <g id="icon_回放" transform="translate(1189.000000, 3847.000000)">
                <circle id="椭圆形" fill="#8A8A8A" cx="18" cy="18" r="18"></circle>
                <path d="M24.0082889,12 L11.1367673,12 C10.8407342,12 10.544701,12.1151631 10.3315571,12.3224568 C10.1184133,12.5297505 10,12.806142 10,13.1055662 L10,22.8944338 C10,23.5047985 10.509177,24 11.1367673,24 L24.0082889,24 C24.6358792,24 25.1450562,23.5047985 25.1450562,22.8944338 L25.1450562,13.1055662 C25.1450562,12.4952015 24.6358792,12 24.0082889,12 Z M20.2545885,18.5758157 L17.0455891,21.0863724 C16.8206039,21.2591171 16.5008881,21.3051823 16.2403789,21.1785029 C15.9798697,21.0518234 15.8140912,20.7984645 15.8140912,20.5105566 L15.8140912,15.4894434 C15.8140912,14.8675624 16.5482534,14.5335893 17.0455891,14.9136276 L20.2545885,17.4241843 C20.4322084,17.56238 20.5387803,17.78119 20.5387803,18 C20.5387803,18.21881 20.4322084,18.43762 20.2545885,18.5758157 L20.2545885,18.5758157 Z M28.3185317,13.8195777 L26.0094731,15.5355086 L26.0094731,20.4184261 L28.3185317,22.1919386 C28.6264062,22.4337812 29.0408526,22.4913628 29.4079337,22.3301344 C29.7631735,22.168906 30,21.8234165 30,21.4318618 L30,14.5796545 C30,14.1996161 29.7750148,13.8426104 29.4079337,13.681382 C29.0408526,13.5201536 28.6145648,13.5662188 28.3185317,13.8195777 Z" id="形状" fill="#FFFFFF" fill-rule="nonzero"></path>
            </g>
        </g>
    </g>
</svg>