<?xml version="1.0" encoding="UTF-8"?>
<svg width="36px" height="36px" viewBox="0 0 36 36" version="1.1" xmlns="http://www.w3.org/2000/svg" xmlns:xlink="http://www.w3.org/1999/xlink">
    <title>icon_重启</title>
    <g id="运维平台" stroke="none" stroke-width="1" fill="none" fill-rule="evenodd">
        <g id="运维巡检" transform="translate(-1384.000000, -3847.000000)">
            <g id="icon_重启" transform="translate(1384.000000, 3847.000000)">
                <circle id="椭圆形" fill="#8A8A8A" cx="18" cy="18" r="18"></circle>
                <g id="编组-24" transform="translate(10.000000, 10.000000)" fill="#FFFFFF" fill-rule="nonzero">
                    <path d="M13.111799,0.208820335 C13.0831115,0.188403141 13.0534677,0.169326832 13.0229208,0.151591406 C13.0041146,0.139648599 12.9644833,0.119910787 12.9644833,0.119910787 C12.8123865,0.0433194924 12.6409698,0 12.4594417,0 C11.8335229,0 11.3261083,0.512289202 11.3261083,1.14422101 C11.3261083,1.59145052 11.596001,1.96689804 11.947051,2.1742881 C13.6264563,3.30177488 14.7333333,5.22951911 14.7333333,7.4183424 C14.7333333,10.8940031 11.9425708,13.711558 8.5,13.711558 C5.05742917,13.711558 2.26666667,10.8940031 2.26666667,7.4183424 C2.26666667,5.22951911 3.37352604,3.30177488 5.05293125,2.17430598 C5.41581042,1.96393022 5.67189062,1.59082478 5.67189062,1.14423889 C5.67189062,0.51230708 5.16447604,0 4.53855729,0 C4.35768437,0 4.18681667,0.0430155587 4.03510937,0.119106256 C4.03510937,0.119106256 4.00985729,0.130816643 3.99802812,0.138307715 C3.95134896,0.163927539 3.90672396,0.192819119 3.8643125,0.224589131 C1.53798646,1.75571775 0,4.40555484 0,7.4183424 C0,12.1578667 3.80557396,16 8.5,16 C13.194426,16 17,12.1578667 17,7.4183424 C17,4.39523897 15.4514948,1.73751749 13.111799,0.208820335 Z" id="路径"></path>
                    <path d="M8.78333333,13.1585417 C9.40926979,13.1585417 9.91666667,12.6462525 9.91666667,12.0143206 L9.91666667,2.86055253 C9.91666667,2.22862072 9.40926979,1.71633152 8.78333333,1.71633152 C8.15741458,1.71633152 7.65,2.22862072 7.65,2.86055253 L7.65,12.0143206 C7.65,12.6462525 8.15741458,13.1585417 8.78333333,13.1585417 Z" id="路径"></path>
                </g>
            </g>
        </g>
    </g>
</svg>