<?xml version="1.0" encoding="UTF-8"?>
<svg width="16px" height="20px" viewBox="0 0 16 20" version="1.1" xmlns="http://www.w3.org/2000/svg" xmlns:xlink="http://www.w3.org/1999/xlink">
    <title>SD卡1_异常</title>
    <g id="运维平台V2.11" stroke="none" stroke-width="1" fill="none" fill-rule="evenodd">
        <g id="画板" transform="translate(-179.000000, -244.000000)">
            <g id="SD卡1_异常" transform="translate(179.000000, 244.000000)">
                <path d="M14.9320957,0 L3.42918643,0 C3.08990012,0 2.76433593,0.134152859 2.5246023,0.37252806 L0.37345711,2.5130946 C0.13428034,2.75100105 0,3.07347195 0,3.40967397 L0,18.9393373 C0,19.5251203 0.478121961,20 1.06790436,20 L14.9320957,20 C15.521878,20 16,19.5251203 16,18.9393373 L16,1.06066275 C15.9997309,0.474879743 15.521878,0 14.9320957,0 L14.9320957,0 Z" id="路径" fill="#FA686A" fill-rule="nonzero"></path>
                <polygon id="路径" fill="#FFFFFF" fill-rule="nonzero" points="13.1602933 1.5777659 14.3602933 1.5777659 14.3602933 5.86905398 13.1602933 5.86905398"></polygon>
                <polygon id="路径" fill="#FFFFFF" fill-rule="nonzero" points="8.83970673 1.5777659 10.0397067 1.5777659 10.0397067 5.86905398 8.83970673 5.86905398"></polygon>
                <polygon id="路径" fill="#FFFFFF" fill-rule="nonzero" points="11 1.5777659 12.2 1.5777659 12.2 5.86905398 11 5.86905398 11 1.5777659"></polygon>
                <polygon id="路径" fill="#FFFFFF" fill-rule="nonzero" points="4.6 1.5777659 5.8 1.5777659 5.8 5.86905398 4.6 5.86905398"></polygon>
                <polygon id="路径" fill="#FFFFFF" fill-rule="nonzero" points="6.8 1.5777659 8 1.5777659 8 5.86905398 6.8 5.86905398 6.8 1.5777659"></polygon>
                <rect id="矩形" fill="#FFFFFF" x="7" y="9" width="2" height="9"></rect>
                <rect id="矩形" fill="#FFFFFF" transform="translate(7.000000, 9.000000) rotate(90.000000) translate(-7.000000, -9.000000) " x="6" y="7" width="2" height="4"></rect>
                <rect id="矩形" fill="#FFFFFF" transform="translate(8.000000, 17.000000) rotate(90.000000) translate(-8.000000, -17.000000) " x="7" y="14" width="2" height="6"></rect>
            </g>
        </g>
    </g>
</svg>