<?xml version="1.0" encoding="UTF-8"?>
<svg width="16px" height="20px" viewBox="0 0 16 20" version="1.1" xmlns="http://www.w3.org/2000/svg" xmlns:xlink="http://www.w3.org/1999/xlink">
    <title>TF卡_异常</title>
    <defs>
        <filter color-interpolation-filters="auto" id="filter-1">
            <feColorMatrix in="SourceGraphic" type="matrix" values="0 0 0 0 0.980392 0 0 0 0 0.407843 0 0 0 0 0.415686 0 0 0 1.000000 0"></feColorMatrix>
        </filter>
    </defs>
    <g id="运维平台V2.11" stroke="none" stroke-width="1" fill="none" fill-rule="evenodd">
        <g id="画板" transform="translate(-225.000000, -244.000000)">
            <g id="TF卡_异常" transform="translate(225.000000, 244.000000)">
                <g filter="url(#filter-1)" id="TF卡">
                    <g>
                        <path d="M14.789916,0 L3.00280111,0 C2.33053221,0 1.79271708,0.530973451 1.79271708,1.19469027 L1.79271708,5.04424779 L1.29971987,5.88495574 L0.537815126,6.28318583 C0.224089643,6.41592919 0,6.81415928 0,7.12389381 L0,11.4159292 L1.4789916,12.1681416 L1.4789916,13.3628319 L0,14.8230089 L0,18.8053097 C0,19.4690265 0.537815126,20 1.21008403,20 L14.789916,20 C15.4621849,20 16,19.4690265 16,18.8053097 L16,1.23893805 C15.9551821,0.530973451 15.417367,0 14.789916,0 L14.789916,0 Z M5.06442576,5.88495574 L3.85434172,5.88495574 L3.85434172,1.46017699 L5.06442576,1.46017699 L5.06442576,5.88495574 Z M7.30532212,5.88495574 L6.09523809,5.88495574 L6.09523809,1.46017699 L7.30532212,1.46017699 L7.30532212,5.88495574 Z M9.54621849,5.88495574 L8.33613445,5.88495574 L8.33613445,1.46017699 L9.54621849,1.46017699 L9.54621849,5.88495574 Z M11.7871148,5.88495574 L10.5770308,5.88495574 L10.5770308,1.46017699 L11.7871148,1.46017699 L11.7871148,5.88495574 Z M14.0280112,5.88495574 L12.8179272,5.88495574 L12.8179272,1.46017699 L14.0280112,1.46017699 L14.0280112,5.88495574 Z" id="形状" fill="#FA686A" fill-rule="nonzero"></path>
                    </g>
                </g>
                <text id="TF" font-family="MicrosoftYaHei, Microsoft YaHei" font-size="10" font-weight="bold" fill="#FFFFFF">
                    <tspan x="2" y="16">TF</tspan>
                </text>
            </g>
        </g>
    </g>
</svg>