<?xml version="1.0" encoding="UTF-8"?>
<svg width="16px" height="20px" viewBox="0 0 16 20" version="1.1" xmlns="http://www.w3.org/2000/svg" xmlns:xlink="http://www.w3.org/1999/xlink">
    <title>U盘</title>
    <g id="运维平台V2.11" stroke="none" stroke-width="1" fill="none" fill-rule="evenodd">
        <g id="画板" transform="translate(-463.000000, -189.000000)">
            <g id="U盘" transform="translate(463.000000, 189.000000)">
                <rect id="矩形" fill="#52C41A" x="0" y="5.5" width="16" height="14.5" rx="1"></rect>
                <path d="M13.9297125,7.14602044 L2.07028754,7.14602044 C1.83069649,7.14602044 1.63578276,7.32046538 1.63578276,7.53489585 L1.63578276,18.147123 C1.63578276,18.3615535 1.83069649,18.5359984 2.07028754,18.5359984 L13.9297125,18.5359984 C14.1693035,18.5359984 14.3642172,18.3615535 14.3642172,18.147123 L14.3642172,7.53489585 C14.3642172,7.32046538 14.1693035,7.14602044 13.9297125,7.14602044 Z" id="路径" fill="#52C41A" fill-rule="nonzero"></path>
                <path d="M12.7795272,16.482416 C12.7795272,16.8671968 12.4309776,17.1791435 12.0010479,17.1791435 C11.5711182,17.1791435 11.2225687,16.8672196 11.2225687,16.482416 L11.2225687,9.29332187 C11.2225687,8.90854108 11.5710926,8.59659438 12.0010479,8.59659438 C12.4310032,8.59659438 12.7795527,8.90851821 12.7795272,9.29332187 L12.7795272,16.482416 Z" id="路径" fill="#52C41A" fill-rule="nonzero"></path>
                <path d="M13.9297125,5.68201886 L12.7795527,5.68201886 L12.7795527,0 L3.22044729,0 L3.22044729,5.68201886 L2.07028754,5.68201886 C0.926900952,5.68201886 0,6.51158162 0,7.53489585 L0,18.147123 C0,19.1704372 0.926900952,20 2.07028754,20 L13.9297125,20 C15.073099,20 16,19.1704372 16,18.147123 L16,7.53489585 C16,6.51155876 15.073099,5.68201886 13.9297125,5.68201886 Z" id="路径" fill="#52C41A" fill-rule="nonzero"></path>
                <polygon id="路径" fill="#FFFFFF" fill-rule="nonzero" points="4.85623004 1.46400158 11.14377 1.46400158 11.14377 5.66618934 4.85623004 5.66618934"></polygon>
                <polygon id="路径" fill="#52C41A" fill-rule="nonzero" points="6.43049201 2.83888204 9.61244728 2.83888204 9.61244728 4.27993998 6.43049201 4.27993998"></polygon>
                <text id="U" font-family="MicrosoftYaHei, Microsoft YaHei" font-size="10" font-weight="bold" fill="#FFFFFF">
                    <tspan x="4.3" y="16">U</tspan>
                </text>
            </g>
        </g>
    </g>
</svg>